<mxfile host="Electron" modified="2024-05-09T00:22:42.580Z" agent="Mozilla/5.0 (Windows NT 10.0; Win64; x64) AppleWebKit/537.36 (KHTML, like Gecko) draw.io/21.6.8 Chrome/114.0.5735.289 Electron/25.5.0 Safari/537.36" etag="TCCkn7cvR8PDmiCMz7SD" version="21.6.8" type="device">
  <diagram name="Page-1" id="03018318-947c-dd8e-b7a3-06fadd420f32">
    <mxGraphModel dx="1120" dy="524" grid="1" gridSize="10" guides="1" tooltips="1" connect="1" arrows="1" fold="1" page="1" pageScale="1" pageWidth="1100" pageHeight="850" background="#ffffff" math="0" shadow="0">
      <root>
        <mxCell id="0" />
        <mxCell id="1" parent="0" />
        <mxCell id="677b7b8949515195-2" value="Worm Catching Game!" style="whiteSpace=wrap;html=1;rounded=0;shadow=0;labelBackgroundColor=none;strokeWidth=1;fontFamily=Verdana;fontSize=28;align=center;comic=1;" parent="1" vertex="1">
          <mxGeometry x="40" y="60" width="1030" height="50" as="geometry" />
        </mxCell>
        <mxCell id="677b7b8949515195-11" value="Section 1" style="text;html=1;points=[];align=left;verticalAlign=top;spacingTop=-4;fontSize=14;fontFamily=Verdana" parent="1" vertex="1">
          <mxGeometry x="330" y="175" width="60" height="20" as="geometry" />
        </mxCell>
        <mxCell id="677b7b8949515195-12" value="Section 2" style="text;html=1;points=[];align=left;verticalAlign=top;spacingTop=-4;fontSize=14;fontFamily=Verdana" parent="1" vertex="1">
          <mxGeometry x="477" y="175" width="60" height="20" as="geometry" />
        </mxCell>
        <mxCell id="677b7b8949515195-13" value="Section 3" style="text;html=1;points=[];align=left;verticalAlign=top;spacingTop=-4;fontSize=14;fontFamily=Verdana" parent="1" vertex="1">
          <mxGeometry x="623" y="175" width="60" height="20" as="geometry" />
        </mxCell>
        <mxCell id="_lST1q6SfosesIpPTgga-1" value="" style="shape=image;verticalLabelPosition=bottom;labelBackgroundColor=default;verticalAlign=top;aspect=fixed;imageAspect=0;image=data:image/jpeg,AAAAHGZ0eXBhdmlmAAAAAGF2aWZtaWYxbWlhZgAAAOptZXRhAAAAAAAAACFoZGxyAAAAAAAAAABwaWN0AAAAAAAAAAAAAAAAAAAAAA5waXRtAAAAAAABAAAAImlsb2MAAAAAREAAAQABAAAAAAEOAAEAAAAAAAAmRgAAACNpaW5mAAAAAAABAAAAFWluZmUCAAAAAAEAAGF2MDEAAAAAamlwcnAAAABLaXBjbwAAABNjb2xybmNseAACAAIABoAAAAAMYXYxQ4EBDAAAAAAUaXNwZQAAAAAAAAJyAAABhQAAABBwaXhpAAAAAAMICAgAAAAXaXBtYQAAAAAAAAABAAEEgYIDhAAAJk5tZGF0EgAKChhmJxwjBAgIGhAytUwRQAEEEEFA3StGmJrEV378SBwO6V+MqE779vElB3QQPpRlfS0/niIVDTpxLTPYa9jqmMXQYb7mdHs3FSF++Vh355TqGhgJIlk8PXYqLy/M1YGTEYOkCRfUJ+2PQlBdpBrisK14Qr6qmDCbPe6aI3p+B2R4l3uCNvMC5DWbCJ2estFjvsVeG3y3oceyvniKjtjbaLvSxlcuf6q0am3xc9E+ljlQoLe7HgY38xi93ycUspfWvRxnq6iX6iOAMRDoK4F9Ze64hUVVNmwkNb4QnCgvQr1+SrkJaDqCciM7bSGDJlTgrCaAOj0ATAbe3JN8QOI6oIai5EpPW8R09OueFTt6sBtu4sVRTBpX4agVuildPEWxhsn+SWRJ5eGtwZJX9cNF0hsIfzG7YNqUZcY25IzS+l9HttHTA8sDMRT74YNBNVLfMhv1mzgYapQ3WeetklJCBlGvM6FTHYQyu+NZbHibJ5SIciM6Xf/Djy8WLlgjlHeogYqGLT24J3A7XE3q+iQuyLcrJ+KcWf4rqH/uHD8SARdFlPUaKvG/bxVmIGTFOo2WWpJv7CjM52ZNIjbISTOSnfhK5CO2KKcXerlk92gYMfoHeEyE0hLsGchbFHvQlstbpfsZg9o7rzD0T/jY2P4S5x7lTYP0R6vpanJMvDZ2I/l94WCHEGt0Uph0CDq2UJOZKmp/SDfjZIUj/W98knGO1KgyC2cu+oewFWUrsDtoFkDxYFhf8v/M2S9u54Y5ZlqevDDYzLRSFQPCd3SId0bP5besUboimHHma9EOBvyfteQTW69JRSnSlICVtzs2ifi2ipwJNnCfJs/GAmXTt5QWmR7JyaT9A2TjTqfT2qHrK1LvkVmCT19RVXdCp404/Sk3JVSg67A0UP/v31B2psJbKSSJLT1kVzWB6mg5tjffHOhLUuh79vXD3ZaG3yBNquWyNPhYNSZ3bGi4imUrN8rPe8msiKa46Ge83lWyBNAM7P6QKYdSmiv5wSYr4H+WeLhEa6oTWQtaJhvIKMLeNVV/PaGt4JVHm56Ipo/KoBLHcL1FVlwKBtir6chd8DrDwRsnNAFtJNre8HP1kd8X2J4YhKqyQGgo8yzNrCraEbcDlKfcmKtaqjuXXIdYFkHphic//Fta+1xQ2Nqpheis8mrMXkMzJ6OQZWSEbXSAgoH5Qh00iGddyZil7pRAD9rLoSgBiVCg/nAjVGHNqxLmH0V3e+xavFue2Q9VG8q3luYTv4kT3g+xpWqzJx54qcvxdhGGumyVo4u0wLMTB7S/RMksnc1FBLvW6sIPysi3BVU/+mBX7Z8O7AfRTRKtS37oe5b9BCFVLOG2EkZvLs9Ed7gZdDB0e9n58Us8H1ZixbeoIBLrwJ8wH0jK0zwgRUumenFWgMpdn4u3IgmUWbBHfCFcyIcmxn18PWBcxCFUVSPg4PCAmhBYrHoY6y8Cm9MnStfe4hMvLwo805cmf5E5IPYGGI0mhFUgef8RkKhbhD6xxNpVFb8np61aA91WZHGB3YReVB78WFA0G58eouySpjRgcnKDdT3/7nj6d/gvgoYsUE55LMHzvDk/DAOr3CI7Y5JBH9O3atqgObSOfjcJPvWRIE28AAUU1Hhusd7I0P6Ai1XrE/hggvJLD+oq9LV7PUqWQmjX+wrI9tx4y51EQy80NH9t7GzOeND7dK+OIlgauZpC30sCMLABonD75j0+dL1M1sH9XYPjVJ9AVAY+F3nw0vxRi+UWcWDZfn/0tkkhaGrYJhsqkXgmsgKR5+asrNGBIPhklzPGeJ5DEcK9xvQvjlF1CztLB+o5s7shDEa9rLDZA2TtIs1K124JyT8ASnS8vB5j0y03XzmeG+YF8enncdh3dIawr6q6dz7BgMkjjRNDmnmYcZVjFpcTaTQZbB3YUU4VDMmj/+gYXHQH6C8jwbvkD3l9zhHlFuDiITMj6FbmW/SgvfoI6hGoiqidSEMUat/H9jFcEoho34Z4AKSCsevnOrRni7YwyVLhmUSUa/eLzYcSQtCwIfkMHl08xcNmIqI9n4948KWZ6bfqNaktQTOD4Gb4HNhZW+q6AszHT0tAl7aNALi/Za0SSTNn9TBIUpskFnHAVbkWVl+bmqJmBFD/t0xTJolPZ18t+gNx/27eNLYhGPxyXHpQjiAmGVJ1Q8IBetrv1n/vV8EjsD11i1tE98SZMElLFOCFlKa4wx8p+eYDNiKh4enMJ2Dj8NW1C5wXgXfEU6kgQ7+SlWCtPsFIuYM33fB/JqT/DV/+Zu2VW6WnrqS2todISVsolkQNrEOc9Mh+nozKClYzulFgVV7wBmeCJRnh0QejWgeDak6UaSSrDg/4ViFBP/+C/28BhOM9eUnBTZ7Uu17Mr1izRT2/JU/bRFW32vPMq3u0vHb5Ul/ElbXNkDEmzDMlDhdruL0+gSJo8cEzew3OmO4BM7UkVZPiXGsruS2F4qIVqTHYIXoSRdxUe3S1g9VkiNu6bAg/9j3FnPpWolYNpNL0o8yhZeOqq9X6ix9dYfT85PqwthS6zggz+dAWGjkOrYkxdLd5eLMKmQG3350R/0SUTw9O0Knu3Rwj+INpte2DOtdcmex0SdcXfjwCBTwZ5NMXDJ1SCxEZ30LqCpE5napKYO+SoIqtFk28qMzFvsQYkRFvF/Y10bruzRAIF4xFuPmxxAL6+16pNarFZEK8ceCO0c9Kfqw7J/GewwCwYNbuJ8meaNis6jPLyx0+i9K735PzgbiisL48zFen1b6odoL+LcFifSQGE0teBGmOHe2erZkq+oae6Ji2YkWkkQeykIo+f/vawcvbIdS8LL7b25oLPgU0ByURpcWRGjPi7DJk0lMpStys0sBWu1/53cifQmDaqTE/yrGz7YXiSq5WluZNHskLam4FQwg0FVxerLfrCFpJwsfIQ2QwhXnenTuu1M1ER+LF+7zE0e2T1X+6U2XfseZioHNOy/5SMSCDXmd0vIZfjI4PjypT95ZgIZCP6N/3KHu9iZhBmaeFQ8zOSeHxpNZyHivDdqfUi0Vv48auTYTSMvkEiCZ951C8Mnv6DDjd48mbJlUgoQ1YClld5drG9vK5EoYFll36bMYGNxdqzPEPw43RFT/BoY0R0Zcv1bSGk2S5vJeaGZ9jlOnbm0CWz6NMG4mGi1atdaI0pWhhO2fsZ3k4npOjLriRHYaBOJkDppxhdF7Z8paZZh+sI9cx/LQb37zFb+pcngAirT2fyvta2doZH0rX4wvFVs5gOAZAg0KzvRr/MGAF+Te14tRodPqBFERwxp0kfi44+AgPjVetyAGkb1sex2JkC0RZiKuCkZLtpRg+7O0ABbHAqO+ratJFb+BloqdV6yiHfunONTh/wF4mNRE0ZlIspVsb/j8Dx3psfiI5BupQbIRIFrJx/YoBt0wf5fViuzbvuuFVwPfpxmak4RHKGCIVTbVB2lHS9INXTm4GqaXN9wvSl9HQ8cLdJ1B6KwUg/grRdqjGfekEgxV0fmcH99NgowD8nYEU/vdXLvUrk1i8MLU4Gm6hCRbnpwKhHmBuG00rp6WR5KsRjx24My0GJ1BB8mWiLp+aLLzw50Q1fWpOSHa/smLHl2zEPodfe5udicga+euZCIl9/AdLgGoTILqayfeIurvH9CglVYZq2kHktQI5/peqIe4WuI5/pGx2nDjS5NPxxqtmmuTDxCO+8uOmzag0ykm4BDRuc7io010/9f3NHQ23MsyeR2wltGOOb2PUhLjLkql4dP8YojMmN4F4bLWvIcrOlUSYNiH+PAWBw1bL/iMjQ6yLAKzA2RInL9M38wS4O9kZSIL01Y7wo5wVQlQHyoHwvdos9aTowS3aZMWjUHc4AJ+iiE1D4yhHQjnucqWceXKBCs3/SLul3PiNA3niJSU1A9CmpKPd7zBvE/3rBPlAO3GGnIYbjN+lWuj1hWKUVtLFXxYG5tYqPE1cVZtWQNSQPTCMaQN/fJrOydq9kvYbVq8/xHKWdNhJgV61Pq0jSYbQubV6XXrMoQW8/rOG7LZ5FzGPbyxhQvXmWFhcPUYiKnIBqNnCIlxYgEUYCEbZNM/2tDj3gGqgGL2dbFclFLGqNKj08q4J360TAFyV12+6p+5/leSJN/VZtiovCOdalLEnsY0mfTiPJiS0aD0tQdj5FLmalWL7vaD7FOlrV8Q1bYzlqC441WqfOl4pvhDLSYMYk9rhJJCQ1pcNpqlF2K1MPDNUeYPteWr/GhsghGVOJMsc7vPLT1V2R3dg4Ur0QANI+KZNbtRXFJsH74DDg0WnyrBDawfOIFHLZ/z2lee31Lgl9gpZXvBdHZKSEdaszvzb1gf/JHUKggmIvcARaBiUrt98zkzaubGeK87ZkJNemDGCysFzyVPRlbLtvaPbKavZrTeE0yMi28YCt4SZf6cleub7lHSa2sdkMjWIJexCzEpXaIDjqPUXWjyNegjaKSKHSNFfTxsflWuLp/Zt0BPFHpxWTkOOz6OOrNLgv5vQ2sjGN4UrGZHprCl0X5s/mRNYNESS2gHom5nE9/uyCG6oeZ6zDUd99tvq/Y+MDsLRKk0pOfhfzFCaZh2pF6FE78lDf1+C/n3YtnqQFrz8MapEEat+HilT+3TFNoMkkpj0aBpJcHkYepX8Yl1hws8wc29FIYEPKwEUgQmza/+5TOZBwbbmc6lkjixiL3tN4reriQ1GquLYH7u//iE3pnQzmkSo7F0hTQBKsjqB+qB1cSW2rfBznQAMaMOik33onx1lAoePI9HLKv7DUpp6Z23evf02oA6Z6Iqidvq/2+fHoQGJcBD+m8418W4FqxD0f4tVhoZnVqli/QxHbc8JyvL4FQMF0y5bdUunUR9mk/HeD/hsEqdMNNJF9/jjc+VF8DsvzPNeGjKwHTIPe8KJAfuWtPo+3QPymt09oP56wv9wmHYFCKfEUysb4VMTAhk0WuLSBiwOn+F2Kt88WuwzOlMYPDvdbsE8bfYVpZ0SUOnbaVJeqGPI8m8MCfjB6Zt42Ouj4YyhPnFmy40kA3od7wR3r/Yzyt2hHUy5QSp7zoTrzVl18Oo5CEiMP4297lt/Sku17HoQ5BaAHxB8ysefVYXkrPglS6s1hBYbFbGL0N91QU3EocRHr34LT/deF7wkVyy9LsCnY63SOluMyaJmDaqIsouUB6pQi+j3mwyqxXVept+gFqwuGBJcvs/S+Y/UuKMkmUS7FLomvOzrJ61XsfWVLhvXO5dOgHIKZmDuxQRR3NmOloFIoFNHbR/OaJLM22HEiPJkwwpZB5WUyoCrVNfY59QsRZOMcFaZF0pdz8NFaEpBFRM5EXg8yMVmurkHR3A9OmnTM0YETYkY8Mnn4q8Usx8dhutlmSb2FztXmCKECAg+tstU0cM0n1vg0Zwpi9ckHwUVw+cgr+VrjKdnfyR4557g1w28h5Wekqd9mngFBBtEXNeXqlDUMlacdEYYtZ2P+TNjE4cA2TfV0MpjmEO2YHrKYN0QiHgaL0cDfDvVpRbJyUa4aD9Y7LNFo2ABz1Vd+BmkzrpCHp7Y7sC/UFUvetiGhtjhasLZNeEUcEF9ZvFwjnXZ/KDOIbYYABL7tCHHSKLlmjwHVoNuzpN8Sa0+4IBV+gTxPAozbDtNg/hjWOjTEkIZp6di7jXcNJc1nZEyLenLvgPIPDaJp5HpVZanY5MscWqRm9j1kwSjKmnHTbt4+MIxFS8WAVqKp9r9/TQO11nbiZZOIcMMcIO4nmcy6MlbIUsVpKhZtICqdwW1ZGS+rsq7gc5Arih5XfXebSXDMLxxByO1SO6tB9DhwY9XpOsvc/vm7G71dA6u+VPS7OzFm3L5w8n0VnE4Wi4gHQD+cMo3RBtyGTxs7nKiKK3XkRxfmZEtDG367SBMNS50SRdBvuLiqsPSfgT9HAAvvQKoIuI8ouezw/yRg28MqyoOVRPBjCxRDprxmqT4MEnRRKfQDkhwVqmIKWA/W27OOGU2dHpDgVt2Ub473e3dS3uf0e6JJwoZ/D3t1PgZABAcXz9zuYxAClxnbbFymRel5vV9820kvGSDQPFQhFuKZxEjGez5kZf69xbh3Cscga4svAIn2XACW2Ax6vObf0vKJzdMShH1WGywptzT8NUIbJBLWXhc9/GCjaOal1O587EJGhjNXE2PVcC9BnGkS1wdLa5ih29CWZAATfNXNaWsPWBR4wEwEq0771Anf3M1HZQa0+dQ7kU5imV3/Oy9Kq2qVGSgiRn7+XRjWUNul3B7L1IW6ODEjkDC/j06sEaCI9HPSdzj2slJhuEmEwQMB9AazAM0y7HfH3ZsA1iMSe2aN+GYdE7k0m2d8Uzp1oWybBd95I5Pht5TotpP2vxbjaAzhgETyB15KRc+alowJuO8gNfvwJYtzd0gosjl5TPQTaAdKzPUeVKH1R9HWBWw2oSaX0VpSE+RvJ9jptRDe511Hl0wAsCbm8jFWRzBlQ7VLldNp1pfJXJIxfDdeHb54Ug5haPy7SJv/LoZxLJwgjJRc/Hvpo56OGiPfsDDWmOAIZXBobPvWWsX6HdbnZ7xJpjsqloNawnsa7hxSvsdkAlVTMkFGgRNhEhb8EwTSfqJ0U78DKhOFEZG9CV9zwu66BuusZZtySG2ElTl1EkOAeTclcsB0z2FrYMu4l6IGvEqI8m4j8JBj/e15TJbmfDcp12h/fxLB/pqIUJGfnD2CCp35XM6haVvtg/wrjBLdRVRneSVfu7YSgOIxrIinDhuFcv66oLqQw82ZloIA+uVCk2bKoCFms2ov3rlFRIJRs+C7niwwDcMpPe51OyfLB/7tXJ4+Ddosq521tnhO5+LSclbtqToN6Hci2H8UONSj1V2fbHk5hiSYo85u+d8nGwEnGcMmTWKDE9/63cJYElNabdSmU7A+DjQ49Qdh6IBAYYlzw0zqtyWVUGgONtCKxt+dgaI3IXEzD907/kgCeGScWYTrympmLLB2Nr/Y81Z7oSN0SaTEmFkrLs5DJySF1KHVopFLFd+WrCADJDBvfr5CO4MkVa/NmjHQoYDa7F69qajhh2hgBAXu+tiIBHxDbdgTzi3TM/IeTjraU4+2WNUHc+FitXDPNUy1Sz4NDo6eLxRU/fxKA851fcWrJEfUn9lP7Bkx31f0SDiwgStHVi4QpY2hfboklWfDLdKkHYYFs1+4Vvl3OAuL+YU8nHvNALSpTV5Dat3BalLFGySLfFCDCfkmznNUMS6V9SnnmVPGlESoszAzPnc8FFHtI6exsp1bUCA2qrBJmFpO9mFfvULQN4Rp0c2B6oUigIq6+U3fGbSiSJ4E9YnW7wDWzHCpkuiCptXTUAEbI1R3FpxeZe8OcSABqA4x7oE1DfYcpwS5UIAHL9Vh8IGD08cV0RuFAVsBPxFvE3bC0DU2kMUG17goRzhN2QuM6uIQAQO06Pk1Eas9vOwscJYqhV7iuYcsNl66o66lSWZ+kvTX67lyTiXFgmq8NKwkw8nOhSA2qKIiIGO8IG9zRK5fI8XolMAvM9CosFyALIGmFDuN64CHKI1xcv1dcjbjF9t1GyzLcdqNi3ELvPbbIuXNslB0M2K7HmzdoSkiIGW569/fLgls4KYztFFjD+9H3tc8s/A4tJLHx6P8EDkZ2301baTobIv8MHb/6YjDlg/WfBp0kabFi/i4in0gNY/iHVJiFU4C0NpMXpcOWK0gWJW1MdHcun0HBHOal7T4S2e0yt6eOJTM459mdBCpR1uXAradT5nezA+r2+VaS9drvdJ09RHmBYo/0LFPSUrYtzxI+lKrvajR/v53a23bVGepVdCiOvVJVJfZmdwtL6FMY/6zUHUvjosiVJedjd5VNyqE6sqtHqlT0PzSe1Uiyskat17LI0wOGOVA8RLXOzSbj7E5i2v3I5nbvBH79frNFM1UDxpYKCpvvSU+6ySef42z7bUCzje2HCwD9IbwYtyupuDQBbJ0cCeaHMhm7PTxhld9r2RgCUvZoS3H3D+XlxITOL6iPT9vsdArwh7ysuAcvvqs2iM4YjEEE6nWXveLeBtxtq8qxaeJH98nDEVwxISLYt00RBBbRojpWVShKZ33SfP7uhGwjsbXMzs9vfuwzSyX559klloPOi4pX2bV3jqG4ISDmsH6b6Af4lzTQboqcvzKOCYGP5BO9wb49ky+JiIA88A10BRCrgbTcZ850qb+E/oeDcaF/T1jilobJRayyOyvOmlO1H2KjPgLGe0sspl4LLVUKbiAT7gbuX/GbSd545+CSQyFG+Rn2xQpJxJDC6cVJYxRtWU8nQHLlFxX1XWfnQYxZ1aafYHVgTUMMO5DznHCemu2ixVromefX4qenepvXmrmEQJ57+OHazoBdORXlLVf4myED+v0jGbgaozZxEUuPiYGYzZuDdXjJNs8vTsS2JbINdvOXxScJj18b1aHTdNlLaDNUaG2iErp6uVkeRG3AJUD9d+jCbJGZe/bV8ERN9wSwQuKo4WKGmUCY+3dwndh7EHJ9qVPH6RLi3wlZJ/m19DcE2ivx17SQjjFaYA6XyLl5KOT6z+umbdOj7z9wYSniQrWgu4mTbTMmxgEa0hK/M7+Z5rnUNqHCaAOWrj9mrjKI2Gm6ihJuUbXSgvGridiNKn+BII/tltX97ld/1A8p7SWZb9KQXWFHji6ZxhwFLySFXR+8g8sjzD4aA3Gk5ucSPP1QHL2MPAihYyo3hsImWuuLLuua5hOwbPEkOWQEOE2qgRp04yKjHU/1y+T3J5B0j5RDBlXaqcV1T36aRMXwbMLcjSs8POAaVloSO13DPUPUgFpAUksamFbXyCheBCDfmFChZNmtp6oJeW4t2jInQd4lUO/hmelebSoHKFuG90HJ0BSGQiBbBpA83NgRNsKsjyH+N/u3QdQf+tauLhTExWwj/2yYnJxw1JMVyeldPYbwORWowd3R9OtL54yt1ZVrsT5qI3dC4Hq9N4oLePbjSyPajZOehnwYgjf5NTPXxACMmCnUIwPd+CKppuESReS3N1TcEEIYhruKe9KG9ddXqJ0ayj6RfX+DImlniATAEDoV6WubuSBiN0FvsnOd67PJIJ4+lW029Ltha3dzkkY6ojGcqdrrV7nejZtdPHy7ISTIu/WKuVRhQlHrynYUuLzyiMH7Vp8WTRj9mCYBMOoKrjiMN3t09fm85oX7y+WnFsmaVKoOR6aJAJc3uVXccM75V/gHB3/Z5tiT/gMJKQkVzldb/Gqt6yGeBN27zera3Rm0u7xs/ZqrmafthJvQhb3XM0tCyryjVHjK0YkzTVk0Z8H0Bbw0mXI07f6yBmTGnYwx3tQzVUaDr0+JN43pkVB6U6YWFJaIsStW0gJytTMH9bTRQ4q1lGfTbE6MaegJvjBn5npyhXPtinI8eTT1OrpkoiyWt5Jl0YLhQBoWHJHRz/f+e7pIbi5To2DNcn6NcfGlzfK3bkzJ/xas3sRKYuCbCahydf7PQJCJ/rpBYxEBK29X/adceA4MhK4y5PnieVC/jPFbvcy7wiI18TQC9IN2F7VqyyffbEbeszWU2cLVSwk/0w+uMJgSgo8uGypjVizfnI0G/onEWMmCSX2A26nzWPF9Bf1NLRlW5Vf4+WZZ05rgJE/FoR2h3tnnFgLDMLssU0T8KifLQllA6kR+y0JoadfhVvisiLy1hyBLLW0txLwGkqSeBvZr4cWsqdY+VMD/goEefwTE9si/ZvHati9pwL+Gblfz8Kl1uLMS/T4N3PshyQQDYVmP+ov9LnsN7Rg2THMFPoDnzcDN0Z1QgH8hoJ7B7+mpOFBdeyZL10rKK8RuxLpep3QfgSYPtUZwKrujLlcP/IoyRI4SfuphsBZqgq+Y3zEqliIljLsOR6P379B26AyH/e7/X3LoMAP1CZ6p6KPmFs+F9Uz6jrftubSH/OqsP+uuQUx20apSaaVG4yzvy/FbQpGW/4qL8/c5nsqGS/j/uO3blOy7BELWWsmex0macWqqZURjnA/mtmzUArOdxsBkw9YULs5WbH49nEygvptDwsFTlyxFSCrLvhOQN4OOrUPFxu/+UR55xvL2D/om34N5LB5InXPhUKMoO3PflFGH5gSe5bExcJibXX61CbAkXakhiXlmK8iE+qtvJ2TpQVsV7vxk7/+0MRxNe2Sk9KvUqDLdfL1AFrL/KjC2udrDhd4STUg+D/aML3w6bIXG5yX16x0Z/3ZOLe+SlHqJKSBcpMmacyEJlD/H/wriWYZ97z25ZnJw6SKhzkwoyjzf0/KxcLhplcahP4DjvTK8edQrPaXu2heWC5VLetnhPvo43bOy7XGf6e8CxAA4ncFR2yuPgDLuv+fcIhCQmEIlzJLl0j3kiGEQ/OnwAkSArQprtwcO9lQEciwfLs6gf5GNQch/bzczDKp0wocg9f4UXjx+QG268bXbtiAM1td0Lq1tp9of/Lj6CKVxoDxv1sf19atftvBlqMvvHMWZeOb2g3jAA5KCS/eHBcNGkht2TsPN+utolHOHlTeCCOse/axGKbhCad0BcrV5SfmFzx5VzSntPaBt6B8NBuZRFZa01BfDpXRzlTZqoXg+FDUxNadVeE5XSeWzqIz6fbXrt+alolyiXIOPn/1wYb6Ednj9g5zix8CeUOo4885lnppbTrqlgOaHzeuS/3sg+anTjQK5a42btGSGVlDbH+I+UxM1wa0kILO1UuvFYaptdzpQSO1qfqV6TkRIUq5GIfbhAoKopKXZxMadgRPgMdH59wRnM3PtuGAXVNhyPvfWLutYDS4ghVu18NrhVGJCbPH4FuBKd4OhLhRoMctDSOTl0s6yDgOnHtP5A+UFZmUks1xTm49MIqVvPVJJKmgoFsrNwf53dwbx2PU+PID++xnqBl8mNtTRJTgiYyx9go8MIkyoyVyOAssYE9mwfQ7ZTJrxWVVjc8zitDt40W2YBKv5KESRACNzDXJ7jxfGCIhsLJeBl/trcAZYPPIoeShirSzJU9FdAx4r4czDdP0v8MY8GHDgZt1BauGShRA/8cHQKI3fqZqXi5KZA0FEqro15wnNXNAhKfCsn833xjiNjUra6Y1u9uS/vd9h9WD9tiHovMNxJpEns+0YZ3huoUiOQAFUvASsHzRP7ETzJAvlgu9dRU4vF4SFf4eM8ByFdVlMfdHk/KGOFcJ22aNJD+HwmD4oxkwPODPThjalQT6Is3+FKKLbE2CTtNCb6U80FS5z19AETierRMXLQke/svNKYGZ5SgUJPKUujunJ+LLmiFJJ4+IjG3VOQkcxVaCMYQbCq4zKYQb6Ehd+89YYn2aBfvSe1o11PZhLM1nLebo5clPCiYwh9RAFH2GLl7L7Edatl2BebBSsHfovk85cRpftFkaIvJA/vR+j0mNCW1DsIvcIOSfIzS6GY/YPuZnVtIcl/GQbYlopJhGxwyTATTGCo2tsQqkwB5lh8NymKvDM+uciQT0qFZUFW+Fh/JbIzvIGd0Vfc2MZmLZ5GdhRHgmjKEmY8rdre1+3vly1+NGqMxmC8RE0k5ylRZxbogy/ucVc7aUeGTlRlU9ShnrIVNZL79Dkr4DX8O+8PMQ5FYJpnNaiyoiazuIaN55hRH99Q0ayMer8QbBMQIh5m9vVYOT3EasF6rYZVu0bPWSByQidJXLPuvhVjf4uRGvHwuyk+vvFOG/Bxfznffz7/ZIVxGj2GubMBFi8GjuIrKHb/D+aUQrN4cOxEDovGd/9/xPmxbKcxz+uNt2I/LsgbKssO+xUbyrSVMl9+pjGF9nqiWbBsrhtVrFY+/YJ5lFaUDP6mkPgvr4ryxnHE2bY30Ly8OBFG0Ykl8dlvelQnQDr2TIvH3zD+uIHSrqvZme9elf0MV+l8E9c61ZhOyh1qdzihd6nO3CTdj4WzUMoUl0NxTgfXn7HrXYr+V/p2ZrwoGAir6HLGShgLoYnWbruepcegvr/9bRjQ0LpPg7ftPck/NYZQjnAkM1ndnP7pSzf6fH821SmBj48K8vBUYo3zcXmQ62hQkfxASH1WMWB614jlpnR2KXWTkVJtcj4wAf9BqRd5XLC43/k8HZktSk2hJus7hjjA1pXxC9BiELVgRbdfT6XSSXoqRwy7v1yL5LKgKv8dHjvt/BfMxfVgEtwpHXvv6DsCaN2NHFgJrsJTtCY8FWic1Kh6LRAKBrSPNuOqpSUiTI9H3UjRkMU++x3mEFtpXHYuUitB/elW+wIGxTtyL6ZbrY9pq/JS5SzPkfNZEsiHDNZRIIVFyalG3vIYIU3VI2jcBpLzjD4uoWLjEHsVeitRc3QDaEeT7sFLm8PpghWSh8id2Gl77W+WDqvqrnv4INvv+Wap6C6SOTyk2g0nvBf0p/gvZOAy2+ojS9J/3ZoeAi8K6q6YA/zaAnE3j1SD6vSIMSCsnWVNAKnIy8Oz1JqiiJjfTFC15eRjpgsP9N1DgecXbzYSf3KFpC5dd4pSrz3kTVr9XQgKEpcE6xw/zd4kaNYmf4Et1za9W/f9vzQXDBDBkp8x+j32sk3mavnoWPHh5hPPInK6qN11VGsMJOkwgPnx2Vd6TkRNahxan6xcA0TwkQQcNTT+hWg6PbAxX7E1uRqBbVjHtwYXKJfKOPhr6/Wy998di93h0P2ukzZ0vwTZAOOt9HNViH/RobEa4XsdX6niWJvKzisffNjoTB5Xq4i3o5X7XyK7Q9AU1zyjEwsn68kwvhOP+hkOQVq/bLSBFhMq1FRZWp5VV4N4p2pLjK2HZe+16WaWD3+MH0NClT0oGk7DuMpbZMNyY2ksehefbNMZXc9YLNXR/wU43Mmoq0h5P84JzqpDzWHptv9BfdCl6yJG+RICKPowxthgVWMr0Btle05mF24rO5EA514gK34wXJEjMK6nr7oQnd8axqDLegOY0FdUzoLcuOzUNRinUE8IzAGA9nFgP3IuA4xKeTHNBbaGULw22qRL0fW398+o9Inxq6o/cY9mnjZW7ZYj6t0IRRUxtMQLj39VY5TmYWncBNnFSajkTvw+oWfI+FntR4pK3btfINsdz9yl218bKe9K7apCoAJzr5aW+U/W0AhUbOGquZkHO/bRe0P4oH3ffS2nvVcUTKKt/TRBop0jKefW0;" parent="1" vertex="1">
          <mxGeometry x="242.9" y="175" width="687.1" height="426.97" as="geometry" />
        </mxCell>
        <mxCell id="wv0K0WiG-z1POux5Wfr7-5" value="&lt;font color=&quot;#000000&quot;&gt;High Score: 50&lt;/font&gt;" style="strokeWidth=1;shadow=0;dashed=0;align=center;html=1;shape=mxgraph.mockup.text.textBox;align=left;fontSize=17;spacingLeft=4;spacingTop=-3;whiteSpace=wrap;strokeColor=#36393d;mainText=;fillColor=#f9f7ed;" parent="1" vertex="1">
          <mxGeometry x="242.89999999999998" y="571.97" width="150" height="30" as="geometry" />
        </mxCell>
        <mxCell id="wv0K0WiG-z1POux5Wfr7-7" value="&lt;font color=&quot;#000000&quot;&gt;Game Description:&lt;/font&gt;&lt;div&gt;&lt;font color=&quot;#000000&quot;&gt;Catch as many worms you can within the time limit! The worms will appear as moving circles in the sand.&amp;nbsp;&lt;/font&gt;&lt;/div&gt;&lt;div&gt;&lt;font color=&quot;#000000&quot;&gt;&lt;br&gt;&lt;/font&gt;&lt;/div&gt;&lt;div&gt;&lt;font color=&quot;#000000&quot;&gt;&lt;br&gt;&lt;/font&gt;&lt;/div&gt;&lt;div&gt;&lt;font color=&quot;#000000&quot;&gt;Controls:&amp;nbsp;&lt;br&gt;W: Move Up&lt;/font&gt;&lt;/div&gt;&lt;div&gt;&lt;font color=&quot;#000000&quot;&gt;S: Move Down&lt;/font&gt;&lt;/div&gt;&lt;div&gt;&lt;font color=&quot;#000000&quot;&gt;A: Move Left&lt;br&gt;D: Move Right&lt;br&gt;Spacebar: Catch Worm&lt;/font&gt;&lt;/div&gt;&lt;div&gt;&lt;br&gt;&lt;/div&gt;" style="strokeWidth=1;shadow=0;dashed=0;align=center;html=1;shape=mxgraph.mockup.text.textBox;align=left;fontSize=17;spacingLeft=4;spacingTop=-3;whiteSpace=wrap;mainText=;fillColor=#FFFFFF;strokeColor=#36393d;" parent="1" vertex="1">
          <mxGeometry x="242.9" y="630" width="687.1" height="290" as="geometry" />
        </mxCell>
        <mxCell id="wv0K0WiG-z1POux5Wfr7-6" value="" style="shape=image;verticalLabelPosition=bottom;labelBackgroundColor=default;verticalAlign=top;aspect=fixed;imageAspect=0;image=data:image/gif,R0lGODlhwATABPcAAJoAAJoAAJoAAJoAAJoAAJoAAJoAAJoAAJoAAJoAAJoAAJoAAJkAAJkAAJkAAJkAAJkAAJkAAJkAAFIYGCkmJikmJikmJikmJikmJikmJikmJikmJikmJikmJikmJikmJikmJikmJikmJikmJikmJikmJikmJikmJikmJikmJiknJyknJyknJyknJyknJyknJyknJyknJyknJyknJygmJigmJigmJigmJigmJigmJigmJigmJigmJigmJigmJiclJSUjIx8eHhgXFxMSEg0MDAUEBAAAAAAAAAAAAAAAAAAAAAAAAAAAAAAAAAAAAAAAAAAAAAAAAAAAAAAAAAAAAAAAAAAAAAAAAAAAAAAAAAAAAAAAAAAAAAAAAAAAAAAAAAAAAAAAAAAAAAAAAAAAAAAAAGpVPmpVPmpVPmpVPmpVPmpVPmpVPmtWP2tWP2tWP2tWP2tWP2tWP2tWP2tWP2tWP2tWP2tWP2tWP2tWP2tWP2tWP2tWP2tWP2tWP2tWP2tWP2tWP2tWP2tWP2tWP2tWP2tWP2tWP2tWP2pWP2pWP2pWP2pWP2pWP2pWP2pWP2pWP2pWP2pWP2pWP2ZWRTJWkjJWkjJWkzJWkzJWkzJWkzJWkzJWkzJWkzJWkjJWkjJWkjJWkjJWkjJWkjJWkjJWkjJWkjJWkzJWkzJWkzJWkzJWkzJWkzJWkzJWkzJWkzJWkzJWkzJWkzJWkzJWkzJWkzJWkzJWkzJWkzJWkzJWkjJWkjJWkjJWkjJWkjlaktWzi9Wzi9Wzi9Wzi9Wzi9a0i9a0i9a0i9a0i9a0i9a0i9a0i9a0i9a0i9a0i9a0i9a0i9a0i9a0i9a0i9a0i9a0i9a0i9a0i/fx6f7+/v7+/v7+/v7+/v///////////////////////////////////////////////////////////////////////////////////////////////////////////////////////////////////////////yH/C05FVFNDQVBFMi4wAwEAAAAh+QQJCgDuACH+H0dlbmVyYXRlZCBieSBvbmxpbmVHSUZ0b29scy5jb20ALAAAAADABMAEAAj+AN0JHEiwoMGDCBMqXMiwocOHECNKnEixosWLGDNq3Mixo8ePIEOKHEmypMmTKFOqXMmypcuXMGPKnEmzps2bOHPq3Mmzp8+fQIMKHUq0qNGjSJMqXcq0qdOnUKNKnUq1qtWrWLNq3cq1q9evYMOKHUu2rNmzaNOqXcu2rdu3cOPKnUu3rt27ePPq3cu3r9+/gAMLHky4sOHDiBMrXsy4sePHkCNLnky5suXLmDNr3sy5s+fPoEOLHk26tOnTqFOrXs26tevXsGPLnk27tu3buHPr3s27t+/fwIMLH068uPHjyJMrX868ufPn0KNLn069uvXr2LNr3869u/fv4MP+ix9Pvrz58+jTq1/Pvr379/Djy59Pv779+/jz69/Pv7///wAGKOCABBZo4IEIJqjgggw26OCDEEYo4YQUVmjhhRhmqOGGHHbo4YcghijiiCSWaOKJKKao4oostujiizDGKOOMNNZo44045qjjjjz26OOPQAYp5JBEFmnkkUgmqeSSTDbp5JNQRinllFRWaeWVWGap5ZZcdunll2CGKeaYZJZp5plopqnmmmy26eabcMYp55x01mnnnXjmqeeefPbp55+ABirooIQWauihiCaq6KKMNuroo5BGKumklFZq6aWYZqrpppx26umnoIYq6qiklmrqqaimquqqrLbq6qv+sMYq66y01mrrrbjmquuuvPbq66/ABivssMQWa+yxyCar7LLMNuvss9BGK+201FZr7bXYZqvtttx26+234IYr7rjklmvuueimq+667Lbr7rvwxivvvPTWa++9+Oar77789uvvvwAHLPDABBds8MEIJ6zwwgw37PDDEEcs8cQUV2zxxRhnrPHGHHfs8ccghyzyyCSXbPLJKKes8sost+zyyzDHLPPMNNds880456zzzjz37PPPQAct9NBEF2300UgnrfTSTDft9NNQRy311FRXbfXVWGet9dZcd+3112CHLfbYZJdt9tlop6322my37fbbcMct99x012333Xjnrff+3nz37fffgAcu+OCEF2744YgnrvjijDfu+OOQRy755JRXbvnlmGeu+eacd+7556CHLvropJdu+umop6766qy37vrrsMcu++y012777bjnrvvuvPfu++/ABy/88MQXb/zxyCev/PLMN+/889BHL/301Fdv/fXYZ6/99tx37/334Icv/vjkl2/++egDzsT67Lfv/vvwxy///PTXb//9+Oeff/o/6u///wAMoAAHWD/++YiACEygAhcoQAP2iIEQjKAEIehAHk3wghjM4P0quCMNevCDHuSgjkBIwhIyUIQ5MqEKVwhAFOKIhTCMIf1ceCMZ2vCG66OhjXDIQxjqsEb+PQyiCX9IIyEa8YNEnNERl4jBJMqIiVCMoBNjFMUqKnCKMLKiFgeIxRdt8Yv/66KLwEhG/ImxRWVM4wzPuCI1uhF+bGzjG+eYwzimiI50tOMd8fhGPaKIj330o4kA6UZBDpKQaTRkiRCZSEWOiJFldOQjIQlGSYqIkpW0JIgw+UVNbpKTWvTkh0AZSlF2iJRWNOUpURlFVXKIla10pYZgCUVZOoeOiMilLnfJy1768pfADKYwh0nMYhrzmMfMoy0Bg0tkOvOZ0IymNKcpTGUu0y/NpKY2t8nNbkLTmtfkSza9Sc5ympOb4AynXsZ5zna6853BTKc68cJOeNrznuf+lOc87VJPfPrzn9PU5z7p0k+AGvSgxBToQOVSUIQ69KG6VOhC4dJQiFrUoBKdqFsqetGO3jOjGmULRz1K0naCNKRqGWlJV+rNk6IULSplqUyp6dKXmiWmM83pM2tqU7LgVKdALSZPeyqWnwb1qMAcKlHBYlSkOnWXSl2qV5r61KdGVapcoWpVkXpVrGpFq1sNale9ihWwhlWnYyWrVcx61pmmVa1UYWtbWfpWuEpFrnMtaV3tChW85tWje+WrU/z614sGVrBMIWxhIXpYxCpFsYt1aGMdixTIRvagk6WsUSx7WYBmVrNE4Wxn/flZ0ApFtKP96BxNGxbUphaepWX+7U9c+1p3xla2PaFtbfO5Wtx2Rbe7LedtfasT4Aa3pb0lLk08eNzmOhefIVSuQ5j73Opal5zRlS5DqHvd7nr3mxrUbkO4+93ymjee4RXvQsh73va6N7vqRQh73Uvf78I3vgaZb333W9374pcg+uWvgIPr3/8KJMADTvBoC2xgBCv4wYVl8H8dDOEKn1XC+KWwhTfsVAzHV8McDjFa02vggoBYxCheqYfVe+IUu9iwJC7xQFr84hojdMXipbGNd0zaGMvYHTrmsZDfiWPtBnnISBauj2V85CQ7eZtFlm6Tn0zlaEZZuVOuspaTueQSZ3nLYK5mlxuswTCbGbkZ/DH+gMt85jbTdMwTZrOb57xTOGdYznTOs1Dt/GE86/nPSeUzi/0M6EJDVdA5JrShDX1l4n550U9utG8fDekkSxq3lK70kC8t20xrmsecZq2nP23jUJt21KR+salBi+pUp3jVmm21q0UMa8rKetYcrrVjb41rC+sasbzuNYR/LdhgC1vBxOarsY894GTbddnM5q+z4QrtaNd32mqttrXfi2gjK3rbke62lL8NbkuLG8vkLvemz+3odKsb1OyetLvfXep4Y3re9Fa1vTuN73y/et+i7re/aQ3wUwt84LkuOKsPjnBfKzzWDG/4sB9u64hLHNkU37XFL97sjAN74xyXtsf+iw3ykF975Mouucm5nWY1H1jlKz8vtsmq7ZinduZerbnNO4tzrOp855HtuVR/DvQIo/zZMC/6dYW+VKIrfa5MJ6rTn37ho1M76VR3btR7OvWsV3XrNu261zts9Wxjfey7BftLxY52sZad5mdv+83fzka2yx3Man+e3e+u5bw7b+98p7Lfmwf4wDt58MwrvOGRjPjlKX7xQm688h4P+R1LPnmUr3yNL4+8zGvexZw/nuc/j+LQG2/0pA+x6YuH+tRvePXEa73rKwz74cl+9g+uvfBuj/sE6z54vO+9gH8PvOALf7/E/53xj0/f5Ptu+cxvr/N7B/3om3f6vKu+9e3+S3fraX/73cX+7r4PfuuKX3fkL/9zz5+79Ku/uezHnfvfT+DuV2/+9K9t/G+H//zPveVJ1H/+x3P2Rz0COIBBV4DTc4AIaHQASEQM2IB5tX+2E4ES2FYUWDsWeIFhlYG0s4Ec+HUKKD0gGIJk94A/VIImeFQeODsquIJA1YKy03/OUIM2eIM4mIM6uIM82IM+2IOF9YNCOIREWIQ56IBN5EQ0aIRM2IRO6AxB+IRSOIU8iIQXNEVLSIVaqIVRuIVe+IRWOEFYGHcP9YVm2IRdeIZq+INhKEFjmEFpuIZyqINxOId2WINtKEVKSIYOdYd+aIN1+IdrmIcUtIdw+Ff+guiHgZiIZkiIJ2SIGLSIjOiFkjiJXPhXMhg7WWiJZ1iJnCiFjrhAbxiJiPiJnViKpviFoXhFkHhBnpiKTPiKsFiEq5hAo+iKqDiLVCiLuiiEtYhAtzhBvNiLPjiMxFiFmDiC0bOJx4iGudiMsZiMKKhDzAiNtPiM1kiEv0hAwShBxpiNgIiN4MiG0piEAciHCDWORviN47iNXNSKwiiO6oiMeTWP2liOVwiP3iiP9niE/NiPN+iODaSPEcSO4GiQ2SiQAdSNBfmPAImHDvmQCtlCBAlBCGmNFwmNExlGFclAGdmMH3mMG+k/DGmREQmQIUmMI6k/JemRJ9mPKdn+iyu5Px25QDGpizc5izNpRjWpQDkJiz+Ziju5QT2ZQEFpikf5iUNpPy1pky9pj0nJiUtZQEWJQFFpiVc5iVO5Rud4iPX4kED4lPO4lfPTlD4pluqYlYxIlvJjlkaJlu0IlweJj2JYlQSklomIl4LIlvHjllYplwkJmBhJl25olwOkl3+ImIpImHrYlaT4lWC5g4p5h3wJR4YpQJNph5k5h5X5Pn55l/AUmaI5mqR5ikSmjNBTbaW5mqzZmkNoT5kIO6rpmrRZm64Jm6ipd+joS7bZm74Zmbg5jTQ0m79ZnMY5mKcpnC5EnMfZnM6JlLCVm3+3m730nNZ5nXkZncr+iULMiZ3e+Z2UqJ3mCIHUyUvgeZ7oCYrimY+OiYvvlJ7wGZ++uJ512Z7x+J7ymZ/6GY7JOZ4pWJ67tJ8CKp/B6Z/UCKC6NKAKip4Fyp7k6ZXutKAS6p0NWp8P+pgROqEa6pwVWpj2uY/4uaEi+psd2pgX6p4ZOqIqWpslWogf2pAhuqIyupot+ogvapIxOqM6Cpz06aEnep8puqNCipI9aqL/CaHtNKRKCpNF6qI/CqJBuqRSqpFNaqNPCqNROqVaipNVKoqXGUD2tKViKpNdyoo36pI5OqZqqpVlaotfCkBhuqZyyqb96aBHiqFJOqd6mphtCoxv+j9xuqeCKof+NeqlZ+qUaTqoinqJdWqhd4qiebqoksqotiWdhIeguTSpmjqFhWqmV4qjWbqpojqfjeqjjwqkkTqqqkqOpWqkB4qk57SqslqMfcqNf+o/gTqruhqQtfqOh3qWibqrstqpbvqrbxmswqqqxOqnxvqXyJqsorqsttqsoPmsYOlBtImtt9mrA0mthxmarqmtrSmurCmtvvqpaBqqo0muq8mupWmu3YquiKquoumupGmvowmvC3mr+pOr7apB2Qqw29qqTnqqUJqq/5pBAauwA1up2ylC3Vma+FqvAtua+kqR3oqZ4DquFcuaE8ujBGulBoulCCuxHZuwGESbF8uRGQv+phvrsSdrsgxrsdy6ry0Lpy+Lshe0sCnbsCZlqYmHqYjAszsbrjFLmitLkvyaP/4qsz3LsTNbrjWLsfIKrPQamR97rUebr1PLslV7rFertVGrsxOksl2rtDcLqDnrtEULtU8rtSFrqF/rrGH7kFlrt1srmknLkkuLP017r3mLtYELlntLk2mLq2sLuGPLtmXrs7z1sBwUsYr7tmQrQWYbt546sqBaspPbtjC7uEh7tnx7uP2auOs6uHgLulyLucU6t9VatwB5t7GLukTKuszqut9qralLuYxruY5rTrH5OpJ7uqpLscULsg5roMMptETbuG7ruTQquoaLuxqru7P+e7xiy7uha7vTSr0ua739KLvhS7tMyr3nqrnpyrnEq73rC73vKr08SbpMa7rGy771677bm7x2+qp4GqtGi727i7+rq7+Oyr+Q6r/P67yfa7/I+7OQW0HDe78KXLkRdLkEbKoGjKoIvMACLMG+S7PmG6/oO6/q68EV/L8MTLjwS5Ty67f0K7gAfL0pLJErzJR9ez9/274T3LsnDMIX7KrLC6vm1LwfzME7nL8OrLwLJb72yMTz6MTqGLxdBMXjSMXgaMXZKMVYhMXWyMXQ6MXNqMWfOUBE3MNGXMQUXLBMRr5NzMZP7MZRDLRLDMdVTMdXbMdZLMcDBcbHyMfE6Mf+vSjGN2w/ZQxBhcxAhyy3PwbIusjIs+jIsCjILXw/iaxAlZxAl3y7i4zHXczJX+zJYazH+wTJqUjKpmjKnyjJ3gtAmUxArUzGKLy/XgbKfUzLf2zLgSzK84TKnMjLlujLk6jKI2zJsXzEOozGPKzGsxzD48vMbezMb/zAiQbNcUzNdWzNdyzN3obNeczNnezNn6zN4wbOoUzOtWzOtyzO6IbOuczOjYzL76zO7ebOjwzP9UzPkazL6gTMjMjPiejPgijMGYzMnWvMJmzIxYzByzzDMtzBMMzQzazEcYbPpWzP+UzRp6zP4QTQf8jRfujRdyjQQQzRz0zS0WzS1Sz+0XeG0als0RXN0r2s0dcE0nZI03No03Io0svp0hkN07/M0y0tz/Lm08EM1DFN1P0s08uE02vI1Gro1Geo09xp1D+N1P9M1UUt1Pdm1QGN1UnN1R2t1LYE1WZI1l9o1l4o1RDr1VcN1h/N1l2t1fzm1iEN12FN1zUt1vOM0tCazSrtcqFl132d13IN2DmB1oM9hWrdZ3id2FGt14ZdEYjt2E642IPW2JSd1pAd2RMx2ZlthJY9zXz92fH815w9W4JN2ppd2Ke9XKmt2loY2ts82rDd06bd2jzh2bXtg7I9zrS921V927hdXK8N3JW92cM9XsVt3EzY2+v828wd18L+ndw3odvRjYPOvdcOfd0XPd3UXRPWzd01mN1DDd3ifdPI/d0JEd7iTd5bbd7n3dTprd4Hwd7c7d5zDd/x/disTd8rYd/Xjd8Bh9n7zYMCbnAEXuA6eOALl+AKjt3z7d9r5uAPboMMDnEUXuHOcOEVl+EVzuEa5+EPDuIfJ+IKTuIkZ+IFjuIpp+L7zeJI5+LxDeNXJ+PnTeNmZ+PtHeEYjkEL8ONAHuRCPuREXuQ/DuDg6UFGvuRMXuQ4jj1K3uRS3uRI/p1RPuVYTuRPfj1XnuVefuTLPaFd/uVZvuXep0FkTuZV7p1jnuZSbub3h+ZuXuZhLqFtPudLDucGKOf+eP7mdb6gd97nWs7jkhTogi7ka46dhn7oQK7nC8jnjO7kf66gix7pjk6CkB7pQ57o11npjH7py5jpmh7knG6dnn7ooJ6aoj7qYK7j6Hnqgp7quplBrD7orn6esN7nsj6dtF7riD7pA5rreL7rl9rrvt7owC6gwj7nxB60xn7sC1Dqz7nsbt7sjrfqrC7tzkntaW7tk4fto67tzcntak7ojkTuXy7ux4nuXu7tmAfumq7uxsnudN7fPX5B0I7st57k8G7p5q5I9I7l8l6cAT/l7t55/f7pyb6fBe/n9t7hPp7v0b7w+tnwVP7vhmTxTD7wv6nxeY7xguTxRs7xvin+8pL+8CEe8flO8r1p8rbu3do9QRI/8ftu5QmP6iDvRy6/6RSfnzv/6yhf4ioP7Sxvmz9P6jmvR0ev7/otpkvf6jBf3vgu8UVfm09P81H/3lO/8j0vn1d/8KJ387He9fH59UlvR2Zf82wu9rp+9nGU9k2/pXAvy2T27Mde9a8sQDMP9qfH9sNO9vA59wW80FtP9ICfnoKv0HNs9zPf+LVOS0zk+JLv63yfN1c/+XcP+UeE+Zyv8EHfPZff+eGu+UYk+qZf7W6viX5/+qyP9aTPQ60f+w6f9eUT+rLP7K8fRLe/+y9P91PN+Lx/+7mv+8Ff/JWPN7Zf/PU+/Dek/MH+f/x3k/zOP/vML0PTv/vQbzfSf/0fX/02xP2yn/11s/3g3/vez0Ll3/riTzfkn/5If/4x5P6nv/5z0/7y7/rwr0L3L/r0Lzf2L/8AwUTgQIIFDR5EmFDhQoYNHT6ECHHBRIoVLV7EmFHjRo4dPX7UGFHkQHclTZ5EmVLlSpYtXb6EGVPmTJo1bd7EmVPnTp49ff4EGlToUKJFjR5FmtTmyJEgnT6FGlVqSKZVrV7FmlXiVK5dvXbVylDpWLJlzZ5Fm1btWrZt3b6FG3dm2IVf7d7Fm5HuXr59/QrMG1iw178F5R5GnFjxYsaNHT+GHLloYYKDLV8GSVnzZs4GMX/+Bn2Rs2TSpU2fRp1a9WrWaDmHhg2682zafmPftjy69W7evX3/Bh5ceNDXuI3jrZ1c+dXjzb/qHh5d+nTq1a1fL1vc+faoy71/d8hd/FPo2M2fR59e/frd2se/3whe/vyC8O1T1cxe/37+/f3/H8q9+wZcgD4D5SMwwQI3A7BBBx+EMEL0BFTwvQMvXK7CAcuTsEMPPwQxRMQo1JA7DE+krUT7OBSxRRdfhDHGm0hUsTkUb9ysRgsZlLFHH38EMkQadcQNRyP/IlI8FoNkskknn5xuyCRhO7LKvabcbkkot+SySy8dkxLLz6wkMysxbeTxSzXXZLNNs8I8M7cy52T+Kk7jtHQzTz335PMlOO0MjE5BIwL0Njz7RDRRRb/8s9C7BoW0IUepTHNRSy/FNMhGJyUsUk8R4lS2SjMltVRTJdw01Kk+ZbU+VS879FRZZ6XVulRfhapVXZnAVc78agU2WGGFu7XXzHZl1VjBYh22WWefVaxYZTtCNtlpkRsVWm235ZYtaa/Fr1pIwX00227PRTfdAHMk9zlxI23X3V/Vpbdee2dkN16u3oVX333NvTdggfvkzBmDD0Y4YYUXZtjgb/2FOGKLCm64YosXZnZgjTdWj+KLP7b4YYlH9tdjkE9WOGOOV2Y5ys1QhjlhkUmmGVyTY0ZZ5ZZ35pm3m3H+Bnnmmofu9WegL9a5Z6WXLs3ooysWmmipOXX6aYaTZjprraN92eqg85067Iir9lpmgLdGO+3EyC774KjFhhtLttt2Bmu178Z7rLnbfjtuv2vcu2y78ya8cOK6prvhvv9mXMHAvR7ccMknx1ezxKEGu3HNqUb88pTPpjx00XF63OrFN0ddyc49Rzjy0V+H3Z3Snz49dduPm/1o12PnffLcga79duEptZz1z+ftPXnlTfod5+CHhx7W1Y2vG/Tlr6e8+Zifj777vLSHeXfsx18a/Jwz9z59+Mw/WXzy32+Z/a81U7/+Fac33n3499dY/o+5t18AneI/pFmPfwdUGgH+Q4Y+ATaQeJShntmQh0AKZk2BmKOfAzUYmwsqzoAVBGH/8Mc6AG7QhBTp4NU+GEIW2iuFGGPgCWVolxcejzItxCHLaihByszQh98boef0l0Mi0mqHrYvhD5VIniBebohFhGKpjui2JC7RitRqYuKeGEUuWmqKDqviFcWIkS9Wb4JdROOzyljCMaZvjStMYxylmEW6sbGN3XvjGeW4x1nlsYd3BKRe6Mg3OPLRkIjyY2ECuciJDVJwhTxkJPOUSCQx0pKU9IskNZkpTPbFkpd0JOQguUlScqmTfPkkI0+5l1K2kmChNF0YU/nDVdLFlbecJCxpJ8tZzrCWYcFlMNf+9Eut9BKQxMyKMJXZJWRixZh3bOZVljnNJ0XTKs9sozWrQk1uakqXEXxkBrE5pTKCk4p67GY6RVROc5rxj+NMEjvNuUV11tM88gSnHeEZqG+2U3ejtGdA2YPPCOpzn9gqnj/nCVCBNvQ8BKWeQQ9Kw34qdHsMdWhGqwPR/PFyojtKqEUjilGNlnQ4HCWhRz+qupCKNKXoNGlM71lRl87vnSutEEqFSFKZ9rQ1OnWiSnHqHKBqkac+RSpqilpHoQ4VdzStaQFhmlSq/maphBSnUwl01XDesKpfPSlUo4rBm2r1PlwV5VTButbUoDWWWTXr/Vo6Vqx6la13/alY6Qr+Q7jGFaQQ3KtR1YpXwj7Grbvsq19ZCtjA1rUwhYXsaQ77z8QqNkt6bew57RpZzhoWs5l1pyItu77PZpaenUXtZErbWImOFotzBa3zjppa2hplssBrqmulB9vYhm+2tQXu4Xjb2/blVreDua1sBxtc5ioluRet7HENtdrAnra516XJc30bXek+sDDERexmsTte51J3r63trmjMS1frkte9K9Hu+bib3jGtd6ztfW9+mWffqKKXvijkb03xq9/8xre48/2vrxgLXuiKl8AP3omBbSraBE93uAxe4HIhvGE/Bdil/k2whP/3Ww4TWMRSLWuFRXVhDHtQwyWGMUpOnOH+FKsYMzMm62NjvOOY4NjFNbaxgr/b4u06mMdHlrGHRQri//pYhS9GMoedzFcgB3lZSrbogKOM2inbkMJWvjGWFarlLXO2yzz8MpiF/BciF1nHZS7zmZGIYDV3isVtRvNf4AxnOWs2zXXm553x7Gc973nLfQYjnQG9KjH7k8yG5nOrLjFpSlfa0pfGdKYnzS9OW0nTnwZ1pnUFaVI3TdKhRnWoO71qHKXa1Zoedall7VlWvdrWlmZ1rjF0a15fItazBjbXat1rW+va2PQhdrFbFWxmj+jUyU71saX9HWi7+tfNxnZbdFXtaE/b27XhNqqvnW1yu+bZ4Yb1t9XNGXT+g3rc5Ya33s7d7kuv296UoXe6WRVvfpNl2/nG9L0F3heAB3zZ/Ub4Uf5d8EoP3OFhYTiuD55wigtl4RH39cM1bhWMU/rdFQe5Ti4e8Y2XfCQd3/TEQ77ynIyc4SaH+UNQnvF9s9zmlfvUzGO+84XoXOU3BzpMXF5wnhf9ID6vedCV7pKhA9zoTx8I0j+1dKqzpOn5hjrUpe6pqnc9ycPueNafvvVIed3sspv3y8VedLJD6uxevzq91852lH/87TePe7vnzvO2D+ruVc87uve+874L6u9UD3y4Bx/zwtPp8EtPPLcXD/PGz+nxSo98tSdv8sqX6fJBzzy0N1/yzpP+6fNAD32yR7/x0lvp9HhPO9FX//DWV+n1Nk89sWdP+7r//PYUz32vd+/w2h/p9ysPPq+HP/DiG+n4IU/+rZcv8Obj6Pkgj76yp7/u6t/o+hXP/qu3b+/uo+j7wI+908ev7vKf6PwJD7+11//t9mPo/QiPf7fnP+36X+j+/c4/cds//uu9pPu/62O3mVPABWTABnTABxQ/EjvACUyJBITAC8TADNTADdQ+I6PAD2y5zeDAESTBEjRBBXw0EHw+CzzBFnTBF4RBd5NAFZxAFozBG8TBHNzAFKTB27NBHQTCIBRCtYOyHjTC/dKMIVTCJWRC1ZvBIzy/H2zCKaTCKuT+QSh8PCmswi3kQiC8Qiz8Oy3swjEkwxP8QjB8OzEswzVkwws8QzQ0OzVswzmkw7B7Qjj0QRGswz3kQzssQjykQDnsw0EkxA58M0DEQ0EsxEVkRIP7Q0T8P0VsxElkxDeERMzTQ0rUxE1MuUe8xCjMRE4UxUq8w08Mw1AcxVTsQ0s0RdxDRVWExTlkxVZEvleMxVskw1mkReyzRVz0RSssxV2Eu178xWJcQl0URvgjRmNkRi8MxmREvGVsxmmMQWSERn6TRGrURhK0xmuEt2zcxnDMwG70RnIDR3FERwckx3LEtnNMx3fsv4dgxw90R3i0RyL0wHlEQGm8x370w3z+1Mfjq0d/JEjNe8aAhD5+LMiFFLyDREjwU0iGlEgn9MSHHMYknMiMxDqHtEj8i0iNBEkBrMiOjEaMDMmT1D2OJMl4G0iURMl1XMk9a0lCDMA6hMmYjLOPpMSapMObxMkom8lB5ElZVMmfbEednMShbEOfNEoeC8pVTD9VZMqmjLGn5EOlZMOppMoSs8o9xMo11Mqt3LCutMmoTMWwFMsHI8ueNMtRRMu01K+1JEqw88W3hMv3ksulbEtRtMu7JK+8zMq95MS+9EvsAkywFMxNJMzCbK7DLMOvfMyiZMxIM8m6TExNXMzJBC7HzMXL3EnJ1EygRMpGhMzOHMnQNMf+0SRFusTFzERNLlPNRSzNMXTN1zSz2CzE2ezC2rRNyOJM2vTMpATN3oSx39zN4CTN4SROKcNNmkTO1QTI5fTIymzN55RN5ZROtWxOobTO3MTO7IzL7YRK1rxF3gRPsDJOLtRN9fzO83Sv9NzC9YzP9nTP8YJPYCTPWDTP+kyq+6RC+cTP6OTPo6TO8uxO5zzNAc3JAtXPA+XOBFVQ0WRQWATQ/6TPCN1M8bxKBx1PAcXQWfPPKaxQEb3QD02tEG3CEU3REjXRzkJRJlRRGGXRFo2sFz1GDt1QCKVRrtwMF/DRHwXSIBXSISXSIjXSI0XSJFXSItWVJXXSJ4XSKJX+Uiad0R0lLM6Y0izV0i3d0ibl0i8F0zAd0v20UoHCUjFF0zTVUi9V0zZ10yQl0zK1pzN90zq1UyBl0zvVUzeNUzlVJzrd00BF0zwV1ELl0j71024CVENl1Ckl1EaFVCdF1ESlpkWN1EtF0kfF1E0d0yql1KqyVE4V1R/V1FEV1Un9VGUKVVPl1FJlVUxF1VQNplV91Ut11VqF1FiV1VuiVVxt1Fv1VUPV1V1tpV4N1kIF1mMN1GElVlIyVmXd02SF1jtl1mbVpGedVjuV1mx902q11kjCVm7l01YR11/11G8tqXAt1zTd1nUd1HNF14xSV3cN03alVzD11njdo3n+vddDJdd+1dN81dc44leAzVJ7NdiDhdeBDaiCTdgoRdiHhdiFZdh6cliJldR/xVg1FdiK5aKL3Vg41diQFdOO9VgoAlmSNdKIVdlMpdiT5aaUbdlOZZWZrdeXhdlpklmbxdOR5VmF1dGcLayd/VkXYNmiDVKTFdoWItqfPVqkJVWcXdpZ7VGodVSftdqMDdqpZaum5dmntVql5doK8lqbBVuoFduxRaCyndmzRdq0VVv+YduWdduihdu4hZ+5Vdm6dVqpxdtN0luS5duv9du/laTADdnBNdvCNdxDQtyNVdy2ZdzG5aPHxdjIpdvJpVw5slyJxdy91dzNlSmoYw3+0hVdgXy60k3d0/0901UN12Xd04NdpVrd2JXd2m0r3LXdLNRdyerd3b272fVdowPezxNe0zje4o3D3zU14lXew0te0oje5y3JolNd56XeNGRe6d3e7MVE7M1d8PXerpveyCjf8XVF8R1e60Xfi2Tf1+3e9mW586W195VfyItfyKDf+0U/9UXe/OXf/rVf2vXfAK7FAuZeBDZgiFRg8wXgBcbGB26M/YXgb5RgxqDgCk7NBtbfC9ZgAh3g9eW5D55fDxa2ECbh6UTh5l3hFGZJE14bGHbhUsvgxajhGZa1G45hDsZhZtNhZ+PhHga2Hz4MIhbiBW1hyTDiI5bQJHb+4CBmYlJbYriY4ijesSp2Cyy2Yh6FYgyW4S0G4zAW4zEm4zI24zNG4zRW4zVm4zZ24zeG4ziW4zmm4zq24zvG4zzW4z3m4z724z8G5EAW5EEm5EI25ENG5ERW5EVm5EZ25EeG5EiW5Emm5Eq25EvG5EzW5E3m5E725E8G5VAW5VEm5VI25VNG5VRW5VVm5VZ25VeG5ViW5Vmm5Vq25VvG5VzW5V3m5V725V8G5mAW5mEm5mI25mNG5mRW5mVm5mZ25meG5miW5mmm5mq25mvG5mzW5m3m5m725m8G53AW53Em53I253NG53RW53Vm53Z253eG53iW53mm53q253v+xud81ud95ud+9ud/BuiAFuiBJuiCNuiDRuiEVuiFZuiGduiHhuiIluiJpuiKtuiLxuiM1uiN5uiO9uiPBumQFumRJumSNumTRumUVumVZumWdumXhumYlumZpumatumbxumc1umd5ume9umfBuqgFuqhJuqiNuqjRuqkVuqlZuqmduqnhuqoluqppuqqtuqrxuqs1uqt5uqu9uqvBuuwFuuxJuuyNuuzRuu0Vuu1Zuu2duu3huu4luu5puu6tuu7xuu81uu95uu+9uu/BuzAFuzBJuzCNuzDRuzEVuzFZuzGduzHhuzIluzJpuzKtuzLxuzM1uzN5uzO9uzPBu2Z0Bbt0Sbt0jbt00bt1Fbt1Wbt1nbt14bt2Jbt2abt2rbt28bt3Nbt3ebt3vbt3wbu4Bbu4Sbu4jbu40bu5Fbu5Wbu5nbu54bu6Jbu6abu6rbu68bu7Nbu7ebu7vbu7wbv8Bbv8Sbv8jbv80bv9Fbv9Wbv9nbv94bv+Jbv+abv+rbv+8bv/Nbv/ebv/vbv/wbwABfwASfwww4IACH5BAkZAM4AIf4fR2VuZXJhdGVkIGJ5IG9ubGluZUdJRnRvb2xzLmNvbQAsAAAAAMAEwASHmgAAmgAAAQAAAAAAAAAAAAAAAAAAAAAAAAAAAAAAAAAAAAAAAAAAAAAAAAAAAAAAAAAAAAAAAAAAAAAADAsLJiUlKCcnKCcnKCcnKCcnKCcnKCcnKCcnKCcnKCcnKCcnKSgoKSgoKSgoKSgoKSgoKSgoKSgoKSotMVSPMVWTMVWTMVWTMVWTMVWTMVWTMVWTMlaTMlaTMlaTMlaTMlaTMlaTMlaTMlaTMlaTMlaTaVY/aVY/aVY/aVY/aVY/aVY/aVY/alY/alY/alY/alY/alY/alY/alY/alY/alY/alY/alY/alY/alY/alY/alY/alY/alY/alY/alY/alY/alY/alY/alY/alY/alY/alY/alY/alY/alY/alY/alY/alY/alY/alY/alY/alY/alY/alY/alY/alY/alY/alY/alY/alY/alY/alY/alY/alY/1bOK1bOK1bOK1bOK1bOK1bOK1bOK1bOK1bOK1bOK1rSL1rSL1rSL1rSL1rSL1rSL1rSL1rSL1rSL1rSL1rSL1rSL1rSL1rSL1rSL1rSL1rSL1rSL1rSL1rSL1rSL1rSL1rSL1rSL1rSL1bOK1bOK1bOK1bOK1bOK1bOK1bOK1rSL1rSL3cGg38Wm4cms482y5dC359S89/Do/v7+/v7+/v7+/v7+/v7+/v7+/v7+/v7+/v7+////////////////////////////////////////////////////////////////////////////////////////////////////////////////////////////////////////////////////////////////////////////////////////////////////////////////////////////////////////////////////////////////////////////////////////////////////////////////////////////////////////////CP4AnQkcSLCgwYMIEypcyLChw4cQI0qcSLGixYsYM2rcyLGjx48gQ4ocSbKkyZMoU6pcybKly5cwY8qcSbOmzZs4c+rcybOnz59AgwodSrSo0aNIkypdyrSp06dQo0qdSrWq1atYs2rdyrWr169gw4odS7as2bNo06pdy7at27dw48qdS7eu3bt48+rdy7ev37+AAwseTLiw4cOIEytezLix48eQI0ueTLmy5cuYM2vezLmz58+gQ4seTbq06dOoU6tezbq169ewY8ueTbu27du4c+vezbu379/AgwsfTry48ePIkytfzry58+fQo0ufTr269evYs2vfzr279+/gw/6LH0++vPnz6NOrX8++vfv38OPLn0+/vv37+PPr38+/v///AAYo4IAEFmjggQgmqOCCDDbo4IMQRijhhBRWaOGFGGao4YYcdujhhyCGKOKIJJZo4okopqjiiiy26OKLMMYo44w01mjjjTjmqOOOPPbo449ABinkkEQWaeSRSCap5JJMNunkk1BGKeWUVFZp5ZVYZqnlllx26eWXYIYp5phklmnmmWimqeaabLbp5ptwxinnnHTWaeedeOap55589unnn4AGKuighBZq6KGIJqrooow26uijkEYq6aSUVmrppZhmqummnHbq6aeghirqqKSWauqpqKaq6qqsturqq/6wxirrrLTWauutuOaq66689urrr8AGK+ywxBZr7LHIJqvsssw26+yz0EYr7bTUVmvttdhmq+223Hbr7bfghivuuOSWa+656Kar7rrstuvuu/DGK++89NZr77345qvvvvz26++/AAcs8MAEF2zwwQgnrPDCDDfs8MMQRyzxxBRXbPHFGGes8cYcd+zxxyCHLPLIJJds8skop6zyyiy37PLLMMcs88w012zzzTjnrPPOPPfs889ABy300EQXbfTRSCet9NJMN+3001BHLfXUVFdt9dVYZ6311lx37fXXYIct9thkl2322WinrfbabLft9ttwxy333HTXbffdeOet9/7efPft99+ABy744IQXbvjhiCeu+OKMN+7445BHLvnklFdu+eWYZ6755px37vnnoIcu+uikl2766ainrvrqrLfu+uuwxy777LTXbvvtuOeu++689+7778AHL/zwxBdv/PHIJ6/88sw37/zz0Ecv/fTUV2/99dhnr/323Hfv/ffghy/++OSXb/756Kev/vrst+/++/DHL//89Ndv//3456///vz37///AAygAAdIwAIa8IAITKACF8jABjrwgRCMoAQnSMEKWvCCGMygBjfIwQ568IMgDKEIR0hCPSnghChMoQpXyMIWuvCFMIyhDGdIwxrWsIQDsqEOd8jDHvrwh/4xxKGAgEjEIhrxiD4UYoCQyMQmOpGJSgTQE6dIxSrOMIr/saIWt6hFLPqHi2AMIxK92B8xmvGMPCQjf9DIxjbCUI37caMc53hCOOqHjnhkox3zk8c+inGP+PGjILcIyPsM8pBULKR9EMnIJiqyPo2MpBEfSR9JWvKHlJzPJTe5w0zKh5OgpKEn4xPKUr5xlO8xpSpZiMpUrvKVdWxle2AJS1nOkpartCV7cJlLXaqHl6r05S+BWUphpoeYxTTmeZAZSmUuk5mcdKZ5oBlNaZKHmpu05jWxaUltjoeb3fRmeMApSXGOk5yNNCd40JlOdXqHnYx0p2RgCYV62vOe+P7Mpz73yc9++vOfAA2oQAc60FrKkyj0JKhCF8rQhjr0of406EGFklCIWvSiGM0oQyU6UaBUVKMgDalIMcrRjvrkoyNNqUpX2s+SmpQnKGWpTGc6Upe+VCcxpalOd/pQm94UJznlqVCHClCf/tQmQSWqUpdqT6MelSZJZapUherUp8okqlPN6kyralWYYFWrYE0pV7vqkq+G9awaHStZWWJWtLoVompdq0ra+ta6LjSuckUJXe3K14DiNa8m2WtfB8vPvwKWJIIlrGLvadjDiiSxi11sYx0LEshGlrCTpaxHLHvZvmZWsxzhbGft+lnQakS0o31raU2LEdSmFq2rZf6tRVz72rDGVrYUoW1ttXpb3EpEt7udam99CxHgBpepwyWuQ4x7XKUmV7kMYW5zh/pc6CpEutPlaXWtixDsZlen2+WuQbz73a2+UrwlIW95WRpe9A5EvetVaXvd6wz4xrem56VvSOx735DO17387W9a8wtdLQr4wAimaRelaeAEO/jBIF2wMxsM4QpbeKNWtCaFL8zhDrc0wwy2oodHTGLGgnjCIi6xijssYWVueMUwdnCLjfniGNu4vzMWZo1vzOPv5tiXO+6xkIP7Y10GechIHm2RbXnkJDtZsUuWZZOfTGXSntjFKa6yljF7ZRpnectgrmuUWznlMJt5qWNGZf6Zz8xm7XZZx19us5yd+2Ygx3nOeN5pmke55jz7OcJ1NvKd/0xo/FZRw4MutKIzumdP9nnRkCZoozP56Ehb+p+TpmSlL81pfWb6kZvutKjr+WlFhnrUnS51IU+N6kurGpCsbnWkX73HWMt60bS2o61vXehcw3HXvP6zr9UI7GDnedhkLLax54xsLyp72W1uNhafDe0zSzuK1K52mK+txGxre8vcFqK3v13lcONw3OR+srlLiO50J3ndJGy3u4cM7xHKe949rrcI743vG+s7hPzud4z/DcKAC3zFBP+gwQ9e4oR7cOEMH7HDOwjxiLM40ExOtMXxPHEOVnzjFu74Bv4/DnIIi1yDJC+5jDEuZY2r3NosJ7PLX77tmKt55jQHt835jPOcl3vnju65z9UNdEoLfejvLrqmj450eisd1Exver6fbuqoS93fVF+11a8+8KzDeutcR7jXaw32sDd87Louu9kljvZfq33tFz90iKsIdy2fPIMpr3tt747BvOs9tXy/oN//3tnAW3DwhI+s4SuI+MRDue3EfrvjE7x4CjZ+8p6FfLIlj3kBV759l+88rjX/vdCLvtek957pTy/s1Hdv9aw/tuu5B/vYM3v226u97aONe+3pfvcwl7v9fg/8mgu/fsQvvs6PT7/kK//nzJ+f859P9OjLb/rUT7r14/6H/ew7ffvw6773pw7+94l//Fgvv/vOj/6uqx/0nG8/qj9vPPbLX8X0L57970/i/BNv//znYf43PAAYgBw2gMJTgAYYcr2XPQq4gCbXgNjzgBC4cu/HPhRYgQiGgMGTgRroeRJ4PR74gffFgcAzgiS4Xib4OyiYgj4WgtbTgi44XSvoOzI4g8dVg71zgzi4WzrIOzzYg6/1g7sThEKoZDBYPUZ4hJdFhLqzhEwoWUlIPVAYhVx2getThVaYeVioPlq4hVbWhenzhWCoWlM4PWRYhrB1htKThmpoW2wYPW74hrwVh9Azh3QoXHb4PHiYh8i1h87Th35IZ2KIPoI4iP7UBYjNc4iI6GaFeD6M2IjgpYjME4mSaF6PaD6WeInsRYnLs4mcKF+eqDygGIqGlkj3U4qm6F+jmDyquIoDlonl84qwSFKtiDy0WIsW5YS5k4u62FO3eDy++IsNxYu4M4zEeFfBWH/xl4xsJ4vkg4zOWFDLqH/NOI0HWI3/d43YyIDQOD7S2I2Ypo0EyI3i+GDGeDvheI6FRY4JaI7suIHu2IHwGI8g+I3is472iE/paDv6uI9NNY8nWI8AqYICyYIEWZAviI/h848F2Y+145AACZG0I5H7SJGzM4KPsJEc2ZEe+ZEgGZIiOZIkOZLBVZIomZIquZIfSWQHaYMJuf5TLDmTNFmTG3mSNpmTOimSLsmQ4KOROxmUQomTQlmUNtmTqDh8MalTRtmUNEmUThmVJYmUU4Q/QCmVWMmTu5WVXAmSVPlEVrmUNNWVZMmRUFmWWfmVThSWdLeVaNmVZ/mWUamWjpSKYjlTcsmVcZmXRkmXUGSXbVlbfImVezmYQemXYwSYVFSYhqmTjNmYR+mDL7mDdylTkNmUj3mZM4mYR8SWi+mWmnmYoBmajimZPll6lclSpCmagrmapbl3kwmEqblSrvmar1WbOcmZk6SYU5SZuGmSo/mbK6mbReSZvRmcwpmSvpmcLWmaSYl8s6lSzMmSyzmdZumcVcmbT/5Undb5CNxpncRJRMa5ncjZnSH5ndMZnkA0nk6Enszpnsmpnpikne1ZnubZnK15n8AJm6epetGZUvpJkvApnPKZRPTZRAP6mwmKmwXaQ+yJoPYZoDcZoRLaoGl0oEy0oLWpoa5poZ2EoUjEoaspoqTpoTr0oBlKoQFKoqFpojaEoiGqovrJoprpojcEokdEo5epo5Bpo6KEo0bEo40ppIbpo1cEpEVEpIOppHxppDIEozkqo/fJpHnppEGEpEREpXKppW9ppaeklIF5mxJ6nlJqnl76QlAapGXanVyKlmfqQmmapGsKnnOantgJllgKRG1alntKlm/aQnGapXX6nv6DGp93upZ5+kOWOaaM2qiOypqi2J+vd5ePWqmWeqn7GanP2XyUiqme+qmPKlMYKTsGB6qmeqpT2omSSnudiqqu+qodqqqbKn2tCqu2eqtNKqvZCaafSZu4+qvACpe6iqe8epy+GqzImqxDOayIWqzkeazKGq3SOpzMWpfOWp/QOq3auq34qam7Cp1hCqDcOq7kKqqxWYS1Sq7qGq3muqq5l67rGq/A2q6zen3wKq/4Cqv0+q2cGq4jla8Ae6v7Sqzg2qvSGbAIi6oD26wFa6wHm7AQ66kLa60N+6wPG7EYG6rV+pfXCqHZmrEgu6Ibm5gdm6IfG7IoS6crNaqxU/6qKfuybDqynZmoPrSoMHuzBCqzu1myMXqyOPuzO6qzxUmzPWSzQHu0Qbuy5/qE94q0TtulQiueRMtDRvu0VuumUbueU7tDVXu1XpuWWTufPBulPvu1ZluUE8uxFYutF3u2bou2YWugY6umZfu2druZceugW6tDXXu3fkudeXuhcyundfu3hquVSuuuvte0h9u4Xhm4Hzq4glq4jlu5aUuya+uxbVu5nNuRlzuzkqunqtm5pOu5kHuie2tDfVu6jvu5O5u5Jru5rNu6p/uiFGdFmKpFuYu7l/pf+qO7vcu7lgq8w0tgIye8lUq8yYu8j+q7+aO8zcu8jgq902u8KP4nvY1KvdmLvYzqvIEKRLtbReFLReNrSg/HvWOqvd2LvhLqvalbQ+X7RPHrRPMLSucrvsGLv8Wrv8vbSx7HvgGqvukLwPrpvqH7Q/XLRAmMRAt8SfdLvvkLwfsrwf0bTLfLv9GLwdWrwdvrv8fLwesLwgMswu1rvXhHwPcpwCVMwgFswn2Hwuapwi3MwgXswoIHw90pwzVMwylsw4eHw9apwz3MwzHsw4wHxNMpxEVMxDlsxJaHxMypxE3MxEHsxBMkxVVMxUkMxclpwLDLwBE8RQ1sRGNcThdMwRmMxhusxh1swf+rxVHMxcKJxVvswdcLx10sx79Jx3FsxyeMx/5zrMe4ycd57McvDMh7LMi1SciBbMg3jMiDrMiuyciJ7Mg/DMmLLMmrScmRbMlHjMmTrMmkycmZ7MlPDMqbLMqhScqhbMpXrMqaycqpjMqjbMUSJMu1TMurDMuX6cX9ysYhDMwjLMwr7MYfTMwzjMw7rMxDbMx3zMxLDM1TLM1Z7Mx/TM11jM19rM2FbM2HzM2NDM6VLM6d7M2PrEplicu7rMskqc6xvLS9+ErpzMuQ6c4jac/1DM/HKM9kic+N6c8gCdCDybKwA0vzzM69TM8hKdB8SdCvY9D9rNCGydAdSdFy6dCuA9FdadFvydGP4NEHXa/cx88bLdEDbdIeCf7SEa24DkjSXKnSJY3QIgnTL63P6ujSWUnTOY3SFc3TF23T/ojTWKnTQ+3TG0nUUonRraPRNS3T/2zUHw3VIc2vtLpKUy2/YYzVMU3OpSzS4SfUSS3VK83VKonUUanUrMPUO+3UEw3VZu2UaL06al3UbH3SdZ3SYr3VVG2vVj3WYpzV9OvXWl3Bez3Sfa3Xg53Gf43YgT3Bhf3Vh93UZD3Lk42Sb92Uca06cx3Wd52XHn3ZRpnZqbPZZ53Xkr3Yp53Ya/zY5gfWpd3ZPw3bR23aa+3VrR3ZtY3aiq3anF3Z62zb6+facE3bdO3b7Uzcvc3awY3bxa3bq83br23cCf7N0hMo3JiN3NHt3MkN3cOs3PDH3Nvd2ITN3dct22gp2qhD2sNt3lct3rlN3sns3Rho3aGN3est3TNt3+UN3N+NzoLt3s8N4OHdRGUstQeMSO1N4ICt4IzN4OPNsL9sSgmuwAtO4Q1u4Q9OsRFeShMOxo4N30UJ2iEO1BFJ3yPO3v/t4O8t4MEs31lo4kIp4jHu1vpd39QtgjAelDKu4zSO4heOuRseSh1+RAUOvimO4bsN4VXt3z9O5BXu4anN4t1NsEEOSkNOxk/u5E2O5R+u5JVoRQEQ5mI+5mRe5mZ+5mGu3oarRWje5m5+5p9N4o7D5m9e52+u5n9L53a+5/5mHuc3XtBgzueCPuZ47rd6PuiC7uf8zYxVhOiIXuh3e+iObueK7uLb2OiTzueQbreSnuluXulUvoiB7ul1vulv2+mkDuc9vujWiOmp/uk5fuqj/upoDupe/omzTut9Hutui+q6Lua2ruGi7uq/Xuam3uu5XuzAvuqWXo7EruzLDt6N6+vFHuxqG4jJDu3HfrbU/uvWDuTDTkXQbuy8zu3ZruzfDrp8eO7VXu5m2+26nu6vi+3PPu7b/u7s7u3MHupfXu/a7u5fC++0Lu9De4f5Hu8A77UC/+oEb+Dr7u/onvBXu/Cp3vBaa/AQ3+7SfrgUT+oWL7YPL+7jTugSb/61He/pHy+3IT9FI0/yG7/mBz/w+37rpBjzDF/yT3vymZ7yeovxIt/yAXDvAW/zFT/zwt7vP9/yQq/wRO/xRn/t4c7yQB/0OO+0Oj/pPC+4K/9EU0/1L5/nTY/yTw/uSC/1QL/0Ex/2Oz/26k7vST/yaG/yao/1bD/vUc/1Ux/3OT/3jp71kbv1TtT1em/1fP/odV/wgN9Egl/1SHv1fX/4Du/2Zq/0jH+0jm/45o3egXP5gz74jV/4nQ/5F5/4TLT4X2/ooJ/oog/yko/3Z1/5QMv5qp/5ct44sq/psP+zt7/nfo+6Pj/5cJ/7OLv7lL76Kt/6gZ/3wn+zxF/qxv7f86SPRKbP5J3b/Hf+/FqP/Fae5fDkRl0//eb7vnhU5N1vRt+v/K4836ffzOWfR+f/+un/4usfze2PR+9P+fHvhcv/1PXv/vdv7wChQOBAggUNHkSYUOHChM4cPoQYUeJEihUtXsSYUeNGjh09fgQZUuRIkiVNnkSZUuVKli1dvoQZU+ZHhjVt3sRp8NFOnj19/gQaVOhQokNzHkWaVOlSpgwDPIUaVepUqlWtXsV6telWrgpmfgUbVuxYsmXNnkWbVu1atm05doWrtOhcunXt/oybV+/evFn9/gUceCpfwg3dHkacWPFixo0dP4YcuWVhygXvXsaceWdlzp05C/4GHVr0U8+UJZ9GnVr1atatXb8mW7qwZtq1jcrGnXvpaN69terOC1v4cOLFjR9Hnnwl8Ly2nT9/xFz6dIS+rV8PQJ2rcu7dvX8HH178WO1boZ/XXF49c+ztR69fOl7+fPr17d8vDl8uev529f/vzD0BBQPwKPwORDBBBRdkkKUCc+ovwrkepFCvAS/0q0KbGuSwQw8/BJE+DWuSsEShRkSRKQxXtCpFhUKEMUYZZ6SRMRcTMjFHn27k8SYWf5SqR4NqJLJII49EsiQhLdOxySWfPAhIKbOD0qskr8QySy1prFKBJp3sssopgexySzPPRDNN+br8UscwxRyTxTLVpP6zTjvvRI3NNk18E8o45awST0EHJbTQ2Krck88+l/xzxTkNhTRSSSf1SM9EI1yU0UYvfJRSTz8FFVJLL+UvUyE35TTQUFdltdUzRyX1PFN7RHXATl3FNVddQ4Q11udm5bFWAW/dtVhjjxURUV/RA/ZGYd0jFllpp6WWuF6Xra1ZF59tL9pqvwU3XMeuxTY9bVHkFjtvxWW3XXfLIrdczM5FN13r1n03X333TSleee+id0R771WVX4MPRhgkf/+tK2ANB/YN34QnphjhhRme0GEKIe5N4oo/BpndizEmSuONOX6v4JBXZlnckUk+0eQCUU4ZypZvxnnal2EGSuaZaf4OzeOchyY60p153tHn/4AOWuWin4ZaVGWRBlhp/ZgGTeiot+Y6y6Op3sxq+LAm0Omuz0Yby6/BFntssgHTOm255za6MrCrpuxtiNvGiW6///6Ys7v9q0zvgfm+CXDFF99X8MHp+szwdBHfkHHLL//W8ceLilzyZymvCXPRRy9W881vy9vzz0FfiHTXXw/V9NOD6lx1VFlvHXbddy9U9tnxKtz2WnF/kXfjj1fT9997ql34P4k3DHnpp09S+eXDTt35RqFHiHrvv+fS7ut7Dl7757kfEnz11+fQ+uubN19K9NNnv3777XN/efjj/3H+gu4HYADDk7/f7Y9/jvLfQP4EuEAGHoeAszPgAVOVQCs10IIXXM0DTxdBCQ6LghXEYAhF2BgNbo6DHezWB0e4QhYepoSPOyEKr/NBELbQhjcUywsHF0MZRkyFOARiEGOiw7vxsIe8oaEQlbjEfolvfEnL3hFt9UMmVtGKlXLiE3liRCk2jYJXBGMYL0JEtpWvi9CiohjVqEYyUo2LZwxMEtc4xzC2EWlvhONf5EhHPjLRjjzDYx6zssc+FhKIf4RZIAX5my8a0pE3RCTJFLnIqhDykZcMYSQxNklKDiaNmARlAzXJME52MiqWDGUqATjKf5XSlKT5pCplyT5WysuVr0TlLHXpvVqW65amzOUuhf55vF5i65edDOYwlQm7Yi7rmJRM5jKlKbpm+uqZi4zmNLW5uGrG6pqCzOY2xUm3bpLqm3kM5zjVebZyXuqccEznOuUJNRrWszI5wGc+9blPfvbTn/8EaEABypl5FnRu9kQoXwS6UIY21KH8JKhBJdq1hFY0Lg/FaEY1is+ITtSjT7NoSLeyUZKWdKCV+WhKiSZSlirFpC+FaQ46qlKarqylN81JTHW60ZnW1KcUw2lQa7JToj60pz9FqsGEutSEFNWpCz1qUqX6LqZWtSBPxeo/ozpVrobLql9VQFbFus+tdtWsOgNrVce6Vpmi9KxvzVxamcrWsZYVrnfFlVznSv7XrNoVr3+NnV6Fyte+uhWwh3WVYAdL2Kf6FbGPNZRig8rYxhoWspedlGRxSlmnOhazn6WTZm/K2aJ6FrSnNZNoW0paopoWta+9kmpZytqduha2ty2SbEVKW53aFre/lZFuQ8rbmPoWuMf9kHAtSlyYGhe5z2WQcivK3Jc6F7rXPZB0E0pdk1oXu99Nlnbryd2Sehe85x2geMdLXp5aFr3vVZB618vejJoXvvd1oHw/SF+N2he//xWOfvfLX4z6F8AHZo2AKUjgArsXwQ/ujoITyGCjOhjCF86vhNFHYYcaGMMfXoyG58fhhnoYxCd2i4g3TGKoWhjFL06NirnH4v4WmwbGN86gjIlHY4GaGMc/DouOd8zjk9oYyEce1z2JvOQGU4bJpPUxkqU8GSU/2coB5cyVGRvlKXcZJVnWcpghWmUx19XFXkbzoZxcZjaDmc1i5XKa5UwTMr/5ym62c2WNPGc+B7nOeWYyngHd2jP32dAO+vOgeSxoRRe30IeG9EkY3WgWT5rS5X10pDUtEktfmsGd9nR9M71pUncE1KFm76lRXeJRl9rVGFH1qpkba1ljudWvxvVEaF1r1u6a1/2Mc6757OtfbznRxa5xYYS97I0QG9l0dfazg81sNEf72WZe87VZvWdqdzsi1tY2VsH962l7W8rjDndpj53uMf5z29zeRje7e7tueeez3O8GcrzrXV167/ve+MaxvveN6WwPvN3KBri5BW7w/va73v9O+IsXzvAmF4biBydMxOHt8Iuru+Adh7jGQTzxjjOU5JcOucgxfPKS2/rjF0+5yiHM8pZrlePsjrnMEUzzmgP75unOuc4BzPOek/Xn4Q660PFL9KLb++jaTrrS4cv0prf15RSPutTRS/Wmc/3NWdc6eL3e87GXGexhx27ZW672MJ8d7dBlO8iffm23vx25cYf53KV9a7sjGe9Y1zuy69733/6d4YYPNN8J/2PED7zxRB784v0u5K6QXfGSBzjlK1/zyGOe8ZofKecv73mFg/6+KZZ3N+mFbvrTiz71qpc565mCeoTDXuqyXwrtM2772+M+KbrnC+977/ujAH8vwlc68ZFifL0gf/XKz6nra+98kUM/+msfPfVdbX2cMD842q8+923i/biAP/ziZwj54WJ+jaN/qNLfPfsz7/6FqL8r8k84/esP/+DjH9/6Vwj72w7/ezcAbCr+Oz4CLD0DNAgB3AoFXEAGJAgHbAoI3DgJnEAEbD4LpDYMvCoN/D4OXDYPzEDsez0RJDUSHAgKZAoUHEEVDCsQLD8XzDUYjEETnD4aLDUbZMH40MFX40EZXL8f3D4Y7EGlIMIiVMEjTIok3EEjFML7c8JNC0IcjP6/KYS0Kiy5zsPC29JCuTvBLqw2KLTC/hNDQ/vCvAvDM2RDyOCMEYDDOJTDOaTDOrTDO8TDPNTDPeTDO+TCNgRELKKMPiTEQjTEQ0REP8y+QGREs3jDRITESJTESPzDRrTEinjESdTETeREOqzESwRFiMjETiTFUkzETwzFUBxFU2TFVsxDVEzFS1xFV6TFWhwBWIzFRpxFW+TFUsTFXAzEXezFYdTEXwTGNhRGYlTGU1zEY3RGkkjGZZRGQjTGZ+zCaJzGbHzFZrTGbjS1ytDGcCzEavTGJMRGcURHOCTHcvzBc0xHcVxHdqRBd3xHbYxHeURBeqzHabxHfORAff7cx2XsR3+EQIAMSGIcSIIkQIM8yF5MSIXEP4ZsSFt8SIhkP4mcSFqsSIsEP4zMyFbcSI6kPo/8SFMMSZFEPpIsSVI8SZTkPZVcSU5sSZeEPZiMyWLkRprsRpu8SUmcSZ30PJ7sSUj8SaCUPKEcSkQsSqMkPKRMSkNcSqa0O6d8SmrMSanMRaqsSj6MSqwMO63cSj3sSq8cvsIIS4S8SrIERbA8S0VcQ7VkR7ZsyzocS7iMPXCcS4pMS7tUy3jiy79UswQCzMFMsVgizMMMTP9BzMV0RMNkzMeECb+EzMmERsekzMuUNMvEzM3kNM3kzM/8xkYCzdEMCckkzdN8CP7TRM3TVM3VHM3WdM3PhM3Y3MzZpM3LtM3bnMzc1M3H5M3eXMzfBM7DFM7hHMziNM6/RM7ktMvlZM6+9MznxEznlE6spM7qZMrrxE6g1M7tpMnu9E6UBM/w5MjxJE+INM/zJMj0VE98ZM/2jMvohE/AfM/53En5tM/81M/95M/+9M//BNAAFdABJdACNdADRdAEVdAFZdAGddAHhdAIldAJpdAKtdALxdAM1dAN5dAO9dAPBdEQFdERJdESNdETRdEUVdEVZdEWddEXhdEYldEZpdEatdEbxdEc1dEd5dEe9dEfBdIgFdIhJdIiNdIjRdIkVdIlZdImddInhdIolf7SKaXSKrXSK8XSLNXSLeXSLvXSLwXTMBXTMSXTMjXTM0XTNFXTNWXTNnXTN4XTOJXTOaXTOrXTO8XTPNXTPeXTPvXTPwXUQBXUQSXUQjXUQ0XURFXURWXURnXUR4XUSJXUSaXUSrXUS8XUTNXUTeXUTvXUTwXVUBXVUSXVUjXVU0XVVFXVVWXVVnXVV4XVWJXVWaXVWrXVW8XVXNXVXeXVXvXVXwXWYBXWYSXWYjXWY0XWZFXWZWXWZnXWZ4XWaJXWaaXWarXWa8XWbNXWbeXWbvXWbwXXcBXXcSXXcjXXc0XXdFXXdWXXdnXXd4XXeJXXeaXXerXXe8XXfNXXfe7l1371138F2IAV2IEl2II12INF2IRV2IVl2IZ12IeF2IiV2Iml2Iq12IvF2IzV2I3l2I712I8F2ZAV2ZEl2ZI12ZNF2ZRV2ZVl2ZZ12ZeF2ZiV2Zml2Zq12ZvF2ZzV2Z3l2Z712Z8F2qAV2qEl2qI12qNF2qRV2qVl2qZ12qeF2qiV2qml2qq12qvF2qzV2q3l2q712q8F27AV27El27I127NF27RV27Vl27Z127eF27iV27ml27q127vF27zV273l2771278F3MAV3MEl3MI13MNF3MRV3MVl3MZ13MeF3MiV3Mml3Mq13MtV2YAAACH5BAkKAO4AIf4fR2VuZXJhdGVkIGJ5IG9ubGluZUdJRnRvb2xzLmNvbQAsAAAAAMAEwASHmgAAmgAAmgAAmgAAmgAAmgAAmgAAmgAAmgAAmgAAmgAAmgAAmQAAmQAAmQAAmQAAmQAAmQAAmQAAUhgYKSYmKSYmKSYmKSYmKSYmKSYmKSYmKSYmKSYmKSYmKSYmKSYmKSYmKSYmKSYmKSYmKSYmKSYmKSYmKSYmKSYmKSYmKScnKScnKScnKScnKScnKScnKScnKScnKScnKScnKCYmKCYmKCYmKCYmKCYmKCYmKCYmKCYmKCYmKCYmKCYmJyUlJSMjHx4eGBcXExISDQwMBQQEAAAAAAAAAAAAAAAAAAAAAAAAAAAAAAAAAAAAAAAAAAAAAAAAAAAAAAAAAAAAAAAAAAAAAAAAAAAAAAAAAAAAAAAAAAAAAAAAAAAAAAAAAAAAAAAAAAAAAAAAAAAAAAAAalU+alU+alU+alU+alU+alU+alU+a1Y/a1Y/a1Y/a1Y/a1Y/a1Y/a1Y/a1Y/a1Y/a1Y/a1Y/a1Y/a1Y/a1Y/a1Y/a1Y/a1Y/a1Y/a1Y/a1Y/a1Y/a1Y/a1Y/a1Y/a1Y/a1Y/a1Y/a1Y/alY/alY/alY/alY/alY/alY/alY/alY/alY/alY/alY/ZlZFMlaSMlaSMlaTMlaTMlaTMlaTMlaTMlaTMlaTMlaSMlaSMlaSMlaSMlaSMlaSMlaSMlaSMlaSMlaTMlaTMlaTMlaTMlaTMlaTMlaTMlaTMlaTMlaTMlaTMlaTMlaTMlaTMlaTMlaTMlaTMlaTMlaTMlaSMlaSMlaSMlaSMlaSOVqS1bOL1bOL1bOL1bOL1bOL1rSL1rSL1rSL1rSL1rSL1rSL1rSL1rSL1rSL1rSL1rSL1rSL1rSL1rSL1rSL1rSL1rSL1rSL1rSL9/Hp/v7+/v7+/v7+/v7+////////////////////////////////////////////////////////////////////////////////////////////////////////////////////////////////////////////CP4A3QkcSLCgwYMIEypcyLChw4cQI0qcSLGixYsYM2rcyLGjx48gQ4ocSbKkyZMoU6pcybKly5cwY8qcSbOmzZs4c+rcybOnz59AgwodSrSo0aNIkypdyrSp06dQo0qdSrWq1atYs2rdyrWr169gw4odS7as2bNo06pdy7at27dw48qdS7eu3bt48+rdy7ev37+AAwseTLiw4cOIEytezLix48eQI0ueTLmy5cuYM2vezLmz58+gQ4seTbq06dOoU6tezbq169ewY8ueTbu27du4c+vezbu379/AgwsfTry48ePIkytfzry58+fQo0ufTr269evYs2vfzr279+/gw/6LH0++vPnz6NOrX8++vfv38OPLn0+/vv37+PPr38+/v///AAYo4IAEFmjggQgmqOCCDDbo4IMQRijhhBRWaOGFGGao4YYcdujhhyCGKOKIJJZo4okopqjiiiy26OKLMMYo44w01mjjjTjmqOOOPPbo449ABinkkEQWaeSRSCap5JJMNunkk1BGKeWUVFZp5ZVYZqnlllx26eWXYIYp5phklmnmmWimqeaabLbp5ptwxinnnHTWaeedeOap55589unnn4AGKuighBZq6KGIJqrooow26uijkEYq6aSUVmrppZhmqummnHbq6aeghirqqKSWauqpqKaq6qqsturqq/6wxirrrLTWauutuOaq66689urrr8AGK+ywxBZr7LHIJqvsssw26+yz0EYr7bTUVmvttdhmq+223Hbr7bfghivuuOSWa+656Kar7rrstuvuu/DGK++89NZr77345qvvvvz26++/AAcs8MAEF2zwwQgnrPDCDDfs8MMQRyzxxBRXbPHFGGes8cYcd+zxxyCHLPLIJJds8skop6zyyiy37PLLMMcs88w012zzzTjnrPPOPPfs889ABy300EQXbfTRSCet9NJMN+3001BHLfXUVFdt9dVYZ6311lx37fXXYIct9thkl2322WinrfbabLft9ttwxy333HTXbffdeOet9/7efPft99+ABy744IQXbvjhiCeu+OKMN+7445BHLvnklFdu+eWYZ6755px37vnnoIcu+uikl2766ainrvrqrLfu+uuwxy777LTXbvvtuOeu++689+7778AHL/zwxBdv/PHIJ6/88sw37/zz0Ecv/fTUV2/99dhnr/323Hfv/ffghy/++OSXb/756APOxPrst+/++/DHL//89Ndv//34559/+j/q7///AAygAAdYP/75iIAITKACFyhAA/aIgRCMoAQh6EAeTfCCGMzg/Sq4Iw168IMe5KCOQEjCEjJQhDkyoQpXCEAU4oiFMIwh/Vx4Ixna8Ibro6GNcMhDGOqwRv49DKIJf0gjIRrxg0Sc0RGXiMEkyoiJUIygE2MUxSoqcIowsqIWB4jFF23xi//roovASEb8ibFFZUzjDM+4IjW6EX5sbOMb55jDOKaIjnS04x3x+EY9ooiPffSjiQDpRkEOkpBpNGSJEJlIRY6IkWV05CMhCUZJioiSlbQkiDD5RU1ukpNa9OSHQBlKUXaIlFY05SlRGUVVcoiVrXSlhmAJRVk6h46IyKUud8nLXvryl8AMpjCHScxiGvOYx8yjLQGDS2Q685nQjKY0pylMZS7TL82kpja3yc1uQtOa1+RLNr1JznKak5vgDKdexnnOdrrzncFMpzrxwk542vOe5/6U5zztUk98+vOf09TnPunST4Aa9KDEFOhA5VJQhDr0obpU6ELh0lCIWtSgEp2oWyp60Y7eM6MaZQtHPUrSdoI0pGoZaUlX6s2TohQtKmWpTKnp0peaJaYzzekza2pTsuBUp0AtJk97KpafBvWowBwqUcFiVKQ6dZdKXapXmvrUp0ZVqlyhalWRelWsakWrWw1qV72KFbCGVadjJatVzHrWmaZVrVRha1tZ+la4SkWucy1pXe0KFbzm1aN75atT/PrXiwZWsEwhbGEheljEKkWxi3VoYx2LFMhG9qCTpaxRLHtZgGZWs0ThbGf9+VnQCkW0o/3oHE0bFtSmFp6lZf7tT1z7WnfGVrY9oW1t87la3HZFt7st5219qxPgBrelvSUuTTx43OY6F58hVK5DmPvc6lqXnNGVLkOoe93uevebGtRuQ7j73fKaN57hFe9CyHve9ro3u+pFCHvdS9/vwje+Bplvffdb3fvilyD65a+Ag+vf/wokwANO8GgLbGAEK/jBhWXwfx0M4QqfVcL4pbCFN+xUDMdXwxwOMVrTa+CCgFjEKF6ph9V74hS72LAkLvFAWvziGiN0xeKlsY13TNoYy9gdOuaxkN+JY+0GechIFq6PZXzkJDt5m0WWbpOfTOVoRlm5U66ylpO55BJnectgrmaXG6zBMJsZuRn8Mf6Ay3zmNtN0zBNms5vnvFM4Z1jOdM6zUO38YTzr+c9J5TOL/QzoQkNV0DkmtKENfWXifnnRT260bx8N6SRLGreUrvSQLy3bTGuax5xmrac/beNQm3bUpH6xqUGL6lSneNWabbWrRQxrysp61hyutWNvjWsL6xqxvO41hH8t2GALW8HE5quxjz3gZNt12czmr7PhCu1o13faaq22td+LaCMretuR7raUvw1uS4sby+Qu96bP7eh0qxvU7J60u99d6nhjet70VrW9O43vfL9636Lut79pDfBTC3zguS44qw+OcF8rPNYMb/iwH27riEsc2RTftcUv3uyMA3vjHJe2x/6LDfKQX3vkyi65ybmdZjUfWOUrPy+2yartmKd25l6tuc07i3Os6nznke25VH8O9Aij/NkwL/p1hb5Uoit9rkwnqtOffuGjUzvpVHdu1Hs69axXdes27brXO2z1bGN97LsF+0vFjnaxlp3mZ2/7zd/ORrbLHcxqf57d767lvDtv73ynst+bB/jAO3nwzCu84ZGM+OUpfvFCbrzyHg/5HUs+eZSvfI0vj7zMa97FnD+e5z+P4tAbb/SkD7Hpi4f61G949cRrvesrDPvhyX72D6698G6P+wTrPni8772Afw+84At/v8T/nfGPT9/k+275zG+v83sH/eibd/q8q7717f5Ld+tpf/vdxf7uvg9+64pfd+Qv/3PPn7v0q7+57Med+99P4O5Xb/70r238b4f//M+95UnUf/7Hc/ZHPQI4gEFXgNNzgAhodABIRAzYgHm1f7YTgRLYVhRYOxZ4gWGVgbSzgRz4dQooPSAYgmT3gD9UgiZ4VB44Oyq4gkDVgrLTf85QgzZ4gziYgzq4gzzYgz7Yg4X1g0I4hERYhDnogE3kRDRohEzYhE7oDEH4hFI4hTyIhBc0RUtIhVqohVG4hV74hFY4QVgYdw/1hWbYhF14hmr4g2EoQWOYQWm4hnKog3E4h3ZYg20oRUpIhg51h35og3X4h2uYhxS0h3D4V/6C6IeBmIhmSIgnZIgYtIiM6IWSOIlc+FcyGDtZaIlnWImcKIWOuEBvGImI+ImdWIqm+IWheEWQeEGemIpM+IqwWISrmECj6IqoOItUKIu6KIS1iEC3OEG82Is+OIzEWIWYOILRs4nHiIa52IyxmIwoqEPMCI20+IzWSIS/SEDBKEHGmI2AiI3gyIbSmIQByIcINY5G+I3juI1c1IrCKI7qiIx5NY/aWI5XCI/eKI/2eIT82I836I4NpI8RxI7gaJDZKJAB1I0F+Y8AiYcO+ZAK2UIECUEIaY0XCY0TGUYVyUAZ2YwfeYwb6T8MaZERCZAhSYwjqT8l6ZEn2Y8p2f6LK7k/HblAMamLNzmLM2lGNalAOQmLP5mKO7lBPZlAQWmKR/mJQ2k/LWmTL2mPScmJS1lARYlAUWmJVzmJU7lG53iI9fiQQPiU87iV89OUPimW6piVjEiW8mOWRomW7QiXB4mPYliVBKSWiYiXgsiW8eOWVimXCQmYGEmXbmiXA6SXf4iYikiYetiVpPiVYLmDinmHfAlHhilAk2mHmTmHlfk+fnmX8BSZojmapHmKRKaM0FNtpbmarNmaQ2hPmQg7qumatFmbrgmbqKl36OhLttmbvhmZuDmNNDSbv1mcxjmYpymcLkScx9mczomUsJWbf7ebvfSc1nmdeRmdyv6JQsyJnd75nZSoneYIgdTJS+B5nugJiuKZj46Ji++UnvAZn764nnXZnvH4nvKZn/oZjsk5nilYnru0nwIqn8Hpn9QIoLo0oAqKngXKnuTple60oBLqnQ1anw/6mBE6oRrqnBVamPa5j/i5oSL6mx3amBfqnhk6oipamyVaiB/akCG6ojK6mi36iC9qkjE6ozoKnPTpoSd6nym6o0KKkj1qov8Joe00pEoKk0Xqoj8KokG6pFKqkU1qo08Ko1E6pVqKk1UqipcZQPa0pWIqk13Kijfqkjk6pmqqlWVqi18KQGG6pnLKpv3poEeKoUk6p3qamG0KjG/6P3G6p4Iqh/416qVn6pRpOqiKeol1aqF3iqJ5uqiSyqi2JZ2Eh6C5NKmaOoWFaqZXiqNZuqmiOp+N6qOPCqSROqqqSo6laqQHiqTntKqyWox9yo1/6j+BOqu6GpC1+o6HepaJuquy2qlu+qtvGazCqqrE6qfG+pfImqyiuqy22qyg+axg6UG0ia232asDSa2HGZquqa2tKa6sKa2++qloGqqjSa6rya6laa7diq6Iqq6i6a6kaa+jCa8Leav6k6vtqkHZCrDb2qpOeqpQmqr/mkEBq7ADW6nbKULdWZr4Wq8C25r6SpHeipngOq4Vy5oTy6MEa6UGi6UIK7Edm7AYRJsXy5EZC/6mG+uxJ2uyDGux3LqvLQunL4uyF7SwKduwJmWpiYepiMCzOxuuMUuaK0uS/Jo//iqzPcuxM1uuNYux8gqs9BqZH3utR5uvU8uyVXusV6u1UauzE6SyXau0NwuoOeu0RQu1Tyu1IWuoX+usYfuQWWu3WyuaScuSS4s/TXuveYu1gQuWe0uTaYurawu4Y8u2ZeuzvPWwHBSxivu2ZCtBZhu3njqyoFqyk9u2MLu4SHu2fHu4/Zq46zq4eAu6XIu5xTq31Vq3AHm3sYu6RMq6zOq632qtqUu5jGu5jmtOsfk6knu6qkuxxQuyDmugwym0RNu4buu5NCq6hou7Gqu7s/57vGLLu6Fru9NKvS5rvf0ou+FLu0zKveequenKucSrvesLve8qvTxJukxrusbLvvXrvtubvHb6qngaq0aLvbuLv6urv47Kv5Dqv8/rvJ9rv8j7s5BbQcN7vwpcuRF0uQRsqgaMqgi8wAIswb5Ls+Ybr+g7r+rrwRX8vwxMuPBLlPLrt/QruAB8vSkskSvMlH17P3/bvhPcuycMwhfsqssLq+bUvB/MwTucvw6svAslvvbIxPPoxOoYvF0ExeNIxeBoxdkoxViExdbIxdDoxc2oxZ85QETcw0ZcxBRcsExGvk3Mxk/sxlEMtEsMx1VMx1dsx1ksxwMFxsfIx8Tox/69KMY3bD9lDEGFzECHLLc/Bsi6yMiz6MiwKMgtfD+JrECVnECXfLuLjMddzMlf7MlhrMf7BMmpSMqmaMqfKMneC0CZTECtTMYovL9eBsp9TMt/bMuBLMrzhMqcyMuW6MuTqMojbMmxfMQ6jMY8rMazHMPjy8xt7Mxv/MCJBs1xTM11bM13LM3ehs15zM2d7M2frM3jBs6hTM61bM63LM7ohs65zM6NjMvvrM7t5s6PDM/1TM+RrMvqBMyMyM+J6M+CKMwZjMyda8wmbMjFjMHLPMMy3MEwzNDNrMRxhs+lbM/5TNGnrM/hBNB/yNF+6NF3KNBBDNHPTNLRbNLVLP7Rd4bRqWzRFc3SvazR1wTSdkjTc2jTcijSy+nSGQ3Tv8zTLS3P8ubTwQzUMU3U/SzTy4TTa8jUaujUZ6jT3GnUP43U/0zVRS3U92bVAY3VSc3VHa3UtgTVZkjWX2jWXijVEOvVVw3WH83WXa3V/ObWIQ3XYU3XNS3W84zS0JrNKu1yoWXXfZ3Xcg3YOYHWgz2Fat1neJ3YUa3Xhl0RiO3YTrjYg9bYlJ3WkB3ZEzHZmW2Elj3NfP3Z8fzXnD1bgk3aml3Yp71cqa3aWhja2zzasN3Tpt3aPOHZte2Dsj3OtL3bVX3buF1crw3clb3Zwz1exW3cTNjb6/zbzB3Xwv6d3Deh29GNg8691w593Rc93dRdE9bN3TWY3UMN3eJ908j93QkR3uJN3ltt3ufd1Omt3gfB3tzt3nMN3/H92KxN3yth39eN3wGH2fvNgwJucARe4Dp44AuX4AqO3fPt32vm4A9ugwwOcRRe4c5w4RWX4RXO4Rrn4Q8O4h8n4gpO4iRn4gWO4imn4vvN4kjn4vEN41cn4+dN42Zn4+0d4RiOQQvw40Ae5EI+5ERe5D8O4ODpQUa+5Exe5DiOPUre5FLe5Ej+nVE+5VhO5E9+PVee5V5+5Ms9oV3+5Vm+5d6nQWRO5lXunWOe5lJu5veH5m5e5mEuoW0+50sO5wYo5/54/uZ1vqB33udazuOSFOiCLuRrjp2GfuhArucLyOeM7uR/rqCLHumOToKQHulDnujXWemMfunLmOmaHuScbp2efuignpqiPupgruPoeeqCnuq6mUGsPuiufp6w3ueyPp20XuuIPukDmut4vuuX2uu+3ujALqDCPufEHrTGfuwLUOrPuexu3uyOt+qsLu3OSe1pbu2Th+2jru3Nye1qTuiORO5fLu7Hie5e7u2YB+6aru7Gye503t89fkHQjuy3nuTwbunmrkj0juXyXpwBP+Xu3nn9/unJvp8F7+f23uE+nu/RvvD62fBU/u+GZPFMPvC/qfF5jvGC5PFGzvG+Kf7ykv7wIR7x+U7yvWnytu7d2j1BEj/x+27lCY/qIO9HLr/pFJ+fO//rKF/iKg/tLG+bP0/qOa9HR6/v+i2mS9/qMF/e+C7xRV+bT0/zUf/eU7/yPS+fV3/wonfzsd718fn1SW9HZl/zbC72un72cZT2Tb+lcC/LZPbsx171ryxAMw/2p8f2w0728Dn3BbzQW0/0gJ+egq/Qc2z3M9/4tU5LTOT4ku/rfJ83Vz/5dw/5R4T5nK/wQd89l9/54a75RiT6pl/tbq+Jfn/6rI/1pM9DrR/7Dp/15RP6ss/srx9Et7/7L0/3U834vH/7ua/7wV/8lY83tl/89T78N6T8wf5//HeT/M4/+8wvQ9O/+9BvN9J//R9f/TbE/bKf/XWz/eDf+97PQuXf+uJPN+Sf/kh//jHk/qe//nPT/vLv+vCvQvcv+vQvN/Yv/wDBROBAggUNHkSYUOFChg0dPoQIccFEihUtXsSYUeNGjh09ftQYUeRAdyVNnkSZUuVKli1dvoQZU+ZMmjVt3sSZU+dOnj19/gQaVOhQokWNHkWa1ObIkSCdPoUaVWpIplWtXsWaVeJUrl29dtXKUOlYsmXNnkWbVu1atm3dvoUbd2bYhV/t3sWbke5evn39CswbWLDXvwXlHkacWPFixo0dP4YcuWhhgoMtXwZJWfNmzgYxf/4GfZGzZNKlTZ9GnVr1atZoOYeGDbrzbNp+Y9+2PLr1bt69ff8GHlx40Ne4jeOtnVz51ePNv+oeHl36dOrVrV8vW9z59qjLvX93yF38U+jYzZ9Hn179+t3ax7/fCF7+/ILw7VPVzF7/fv79/f8fyr37BlyAPgPlIzDBAjcDsEEHH4QwQvQEVPC9Ay9crsIBy5OwQw8/BDFExCjUkDsMT6StRPs4FLFFF1+EMcabSFSxORRv3KxGCxmUsUcffwQyRBp1xA1HI/8iUjwWg2SySSefnG7IJGE7ssq9ptxuSSi35LJLLx2TEsvPrCQzKzFt5PFLNddks02zwjwztzLnZP4qTuO0dDNPPffk8yU47QyMTkEjAvQ2PPtENFFFv/yz0LsGhbQhR6lMc1FLL8U0yEYnJSxSTxHiVLZKMyW1VFMl3DTUqT5ltT5VLzv0VFlnpdW6VF+FqlVdmcBVzvxqBTZYYYW7tdfMdmXVWMFiHbZZZ59VrFhlO0I22WmRGxVabbflli1pr8WvWkjBfTTbbs9FN90AcyT3OXEjbdfdX9Wlt157Z2Q3Xq7ehVfffc29N2CB++TMGYMPRjhhhRdm2OBv/YU4YosKbrhiixdmdmCNN1aP4os/tvhhiUf212OQT1Y4Y45XZjnKzVCGOWGRSaYZXJNjRlnllnfmmbebcf4Geeaah+71Z6Av1rlnpZcuzeijKxaaaKk5dfpphpNmOmuto33Z6qDznTrsiKv2WmaAt0Y77cTILvvgqMWGG0u223YGa7Xvxnusudt+O26/a9y7bLvzJrxw4rqmu+G+/2ZcwcC9HtxwySfHV7PEoQa7cc2pRvzylM+mPHTRcXrc6sU3R13Jzj1HOPLRX4fdndKfPj1124+b/WjXY+d98tyBrv124Sm1nPXP5+09eeVN+h3n4IeHHtbVja8b9OWvp7z5mJ+Pvvu8tId5d+zHXxr8nDP3Pn34zD9ZfPLfb5n9rzVTv/4Vpzfeffj311j+j7m3XwCd4j+kWY9/B1QaAf5Dhj4BNpB4lKGe2ZCHQApmTYGYo58DNRibCyrOgBUEYf/wxzoAbtCEFOng1T4YQhbaK4UYY+AJZWiXFx6PMi3EIctqKEHKzNCH3xuh5/SXQyLSaoeti+EPlUieIF5uiEWEYqmO6LYkLtGK1Gpi4p4YRS5aaooOq+IVxYiRL1Zvgl1E47PKWMIxpm+NK0xjHKWYRbqxsY3de+MZ5bjHWeWxh3cEpF7oyDc48tGQiPJjYQK5yIkNUnCFPGQk85RIJDHSkpT0iyQ1mSlM9sWSl3Qk5CC5SVJyqZN8+SQjT7mXUraSYKE0XRhT+cNV0sWVt5wkLGkny1nOsJZhwWUw1/70S630EpDEzIowldklZGLFmHds5lWWOc0nRdMqz2yjNatCTW5qSpcRfGQGsTmlMoKTinrsZjpFVE5zmvGP40wSO825RXXW0zzyBKcd4Rmob7ZTd6O0Z0DZg88I6nOf2CqeP+cJUIE29DwEpZ5BD0rDfip0ewx1aEarA9H88XKiO0qoRSOKUY2WdDgcJaFHP6q6kIo0peg0aUzvWVGXzu+dK60QSoVIUpn2tDU6daJKceocoGqRpz5FKmqKWkehDhV3NK1pAWGaVKr+ZqmEFKdTCXTVcN6wql89KVSjisGbavU+XBXlVMG61tSgNZZZNev9WjpWrHqVrXf9qVjpCv5DuMYVpBDcq1HVilfCPsatu+yrX1kK2MDWtTCFhexpDvvPxCo2S3pt7DntGlnOGhazmXWnIi27vs9mlp6dRe1kSttYiY4Wi3MFrfOOmlraGmWywGuqa6UH29iGb7a1Be7heNvb9uVWt4O5rWwHG1zmKiW5F63scQ212sCetrnXpclzfRtd6T6wMMRF7GaxO17nUnevre2uaMxLV+uS170r0e75uJveMa13rO19b36ZZ9+oope+KORvTfGr3/zGt7jz/a+vGAte6IqXwA/eiYFtKtoET3e4DF7gciG8YT8F2KX+TbCE//dbDhNYxFIta4VFdWEMe1DDJYYxSk6c4f4UqxgzMybrY2O845jg2MU1trGCv9vi7TqYx0eWsYdFCuL/+liFL0Yyh53MVyAHeVlKtuiAo4zaKduQwla+MZYVquUtc7bLPPwymIX8FyIXWcdlLvOZkYhgNXeKxW1G81/gDGc5azbNdebnnfHsZz3vect9BiOdAb0qMfuTzIbmc6suMWlKV9rSl8Z0pifNL05bSdOfBnWmdQVpUjdN0qFGdag7vWocpdrVmh51qWXtWVa92taWZnWuMXRrXl8i1rMGNtdq3Wtb69rY9CF2sVsVbGaP6NTJTvWxpf0daLv6183Gdlt0Ve1oT9vbteE2qq+dbXK75tnhhvW31c0ZdP6Detzlhrfezt3uS6/b3pShd7pZFW9+k2Xb+cb0vQXeF4AHfNn9RvhR/l3wSg/c4WFhOK4PnnCKC2XhEff1wzVuFYxT+t0VB7lOLh7xjZd8JB3f9MRDvvKcjJzhJof5Q1Ce8X2z3OaV+9TMY77zhehc5TcHOkxcXnCeF/0gPq950JXukqED3OhPHwjSP7V0qrOk6fmGOtSl7qmqdz3Jw+541p++9Uh53eyym/fLxV50skPq7F6/Or3XznaUf/ztN497u+fO87YP6u5Vzzu6977zvgvq71QPfLgHH/PC0+nwS088txcP88bP6fFKj3y1J2/yypfp8kHPPLQ3X/LOk/7p80APfbJHv/HSW+n0eE870Vf/8NZX6fU2Tz2xZ0/7uv/89hTPfa937/DaH+n3Kw8+r4c/8OIb6fghT/6tly/w5uPo+SCPvrKnv+7q3+j6Fc/+q7dv7+6j6PvAj73Tx6/u8p/o/AkPv7XX/+32Y+j9CI9/t+c/7fpf6P79zj9x2z/+672k+7/rY7eZU8AFZMAGdMAHFD8SO8AJTIkEhMALxMAM1MAN1D4jo8APbLnN4MARJMESNEEFfDQQfD4LPMEWdMEXhEF3k0AVnEAWjMEbxMEc3MAUpMHbs0EdBMIgFEK1g7IeNML90owhVMIlZELVm8EjPL8fbMIppMIq5P5BKHw8KazCLeRCILxCLPw7LezCMSTDE/xCMHw7MSzDNWTDCzxDNDQ7NWzDOaTDsHtCOPRBEazDPeRDOyxCPKRAOezDQSTEDnwzQMRDQSzERWREg/tDRPw/RWzESWTEN4REzNNDStTETUy5R7zEKMxEThTFSrzDTwzDUBzFVOxDSzRF3ENFVYTFOWTFVkS+V4zFWyTDWaRF7LNFXPRFKyzFXYS7XvzFYlxCXRRG+CNGY2RGLwzGZES8ZWzGaYxBZIRGfpNEatRGErTGa4S3bNzGcMzAbvRGcgNHcURHByTHcsS2c0zHd+y/h2DHD3RHeLRHIvTAeURAabzHfvTDfP7Ux+OrR38kSM17xoCEPn4syIUUvINESPBTSIaUSCf0xIccxiScyIzEOoe0SPyLSI0ESQGsyI6MRowMyZPUPY4kyXgbSJREyXVcyT1rSUIMwDqEyZiMs4+kxJqkw5vEySibyUHkSVlUyZ9sR52cxKFsQ580Sh4LylVMP1VkyqaMsafkQ6Vkw6mkyhKzyj3EyjXUyq3csK60yahMxbAUywcjy540y1FEy7TUr7UkSrDzxbeEy/eSy6VsS1G0y7skr7zMyr3kxL70S+wCTLAUzE0kzMJsrsMsw698zKJkzEgzybpMTE1czMkELsfMxcvcScnUTKBEykaEzM4cydA0x/7RJEW6xMXMRE0uU81FLM0xdM3XNLPYLMTZ7MLatE3I4kza9MykBM3ehLHf3M3gJM3hJE4pw02aRM7VBMjl9MjKbM3nlE3llE61bE6htM7cxM7sjMvthErWvEXeBE+wMk4u1E31/M7zdK/03ML1jM/2dM/xgk9gJM9YNM/6TKr7pEL5xM/o5M+jpM7y7E7nPM0BzckC1c8D5c4EVVDRZFBYBND/pM8I3UzxvEoHHU8BxdBZ888prFARvdAPTa0QbcIRTdESNdHOQlEmVFEYZdEWjawXPUYO3VAIpVGu3AwX8NEfBdIgFdIhJdIiNdIjRdIkVdIi1ZUlddInhdIolf5SJp3RHSUszpjSLNXSLd3SJuXSLwXTMB3S/bRSgcJSMUXTNNVSL1XTNnXTJCXTMrWnM33TOrVTIGXTO9VTN41TOVUnOt3TQEXTPBXUQuXSPvXTbgJUQ2XUKSXURoVUJ0XURKWmRY3US0XSR8XUTR3TKqXUqrJUThXVH9XUURXVSf1UZQpVU+XUUmVVTEXVVA2mVX3VS3XVWoXUWJXVW6JVXG3UW/VVQ9XVXW2lXg3WQgXWYw3UYSVWUjJWZd3TZIXWO2XWZtWkZ51WO5XWbH3TarXWSMJWbuXTVhHXX/XUby2pcC3XNN3WdR3Uc0XXjFJXdw3TdqVXMPXWeN2jef6910Ml137V03zV1zjiV4DNUns12IOF14ENqIJN2ChF2IeF2IVl2HpyWImV1H/FWDUV2IrloovdWDjV2JAV0471WCgCWZI10ohV2Uyl2JPlppRt2U5llZmt15eF2WmSWZvF05HlWYXV0ZwtrJ39WRdg2aINUpMV2hYi2p89WqQlVZxd2lntUah1VJ+12owN2qllq6bl2ae1WqXl2gryWpsFW6gV27FFoLKd2bNF2rRVW/5h25Z126KF27iFn7lV2bp1WqnF203SW5Ll26/127+VpMAN2cE128I13ENC3I1V3LZl3Mblo8fF2Mil28mlXDmyXInF3L3V3M2VKahjDf7SFV2BfLrSTd3T/T3TVQ3XZd3Tg12lWt3Yld3abSvctd0s1F3J6t3dvbvZ9V2jA97PE17TON7ijcPfNTXiVd7DS17SiN7nLcmiU13npd40ZF7p3d7sxUTszV3w9d6um97IKN/xdUXxHV7rRd+LZN/X7d72ZbnzpbX3lV/Ii1/IoN/7RT/1Rd785d/+tV/a9d8ArsUC5l4ENmCIVGDzBeAFxsYHboz9heBvlGDGoOAKTs0G1t8L1mACHeD15bkPnl8PFrYQJuHpROHmXeEUZkkTXhsYduFSy+DFqOEZlrUbjmEOxmFm02Fn4+EeBrYfPgwiFuIFbWHJMOIjltAkdv7gIGZiUltiuJjiKN6xKnYLLLZiHoViDJbhLQbjMBbjMSbjMjbjM0bjNFbjNWbjNnbjN4bjOJbjOabjOrbjO8bjPNbjPebjPvbjPwbkQBbkQSbkQjbkQ0bkRFbkRWbkRnbkR4bkSJbkSabkSrbkS8bkTNbkTebkTvbkTwblUBblUSblUjblU0blVFblVWblVnblV4blWJblWablWrblW8blXNblXeblXvblXwbmYBbmYSbmYjbmY0bmZFbmZWbmZnbmZ4bmaJbmaabmarbma8bmbNbmbebmbvbmbwbncBbncSbncjbnc0bndFbndWbndnbnd4bneJbneabnerbne/7G53zW533m5372538G6IAW6IEm6II26ING6IRW6IVm6IZ26IeG6IiW6Imm6Iq26IvG6IzW6I3m6I726I8G6ZAW6ZEm6ZI26ZNG6ZRW6ZVm6ZZ26ZeG6ZiW6Zmm6Zq26ZvG6ZzW6Z3m6Z726Z8G6qAW6qEm6qI26qNG6qRW6qVm6qZ26qeG6qiW6qmm6qq26qvG6qzW6q3m6q726q8G67AW67Em67I267NG67RW67Vm67Z267eG67iW67mm67q267vG67zW673m6772678G7MAW7MEm7MI27MNG7MRW7MVm7MZ27MeG7MiW7Mmm7Mq27MvG7MzW7M3m7M727M8G7ZnQFu3RJu3SNu3TRu3UVu3VZu3Wdu3Xhu3Ylu3Zpu3atu3bxu3c1u3d5u3e9u3fBu7gFu7hJu7iNu7jRu7kVu7lZu7mdu7nhu7olu7ppu7qtu7rxu7s1u7t5u7u9u7vBu/wFu/xJu/yNu/zRu/0Vu/1Zu/2du/3hu/4lu/5pu/6tu/7xu/81u/95u/+9u//BvAAF/ABJ/DDDggAIfkECRkAzgAh/h9HZW5lcmF0ZWQgYnkgb25saW5lR0lGdG9vbHMuY29tACwAAAAAwATABIeZAACZAACZAACIBQUpJiYoJiYoJiYBAQEAAAAAAAAAAAAAAAAAAAAAAAAAAAAAAABcSzdpVT5pVT5pVT5pVT5pVT5pVT5pVT5pVT5pVT5pVT5pVT5pVT5pVT5pVT5pVT5pVT5pVT5pVT5pVT5pVT5pVT5pVT5pVT5pVT5pVT5pVT5pVT5pVT5pVT5pVT5pVT5pVT5pVT5pVT5pVT5pVT5pVT5pVT5pVT9pVT9pVT9pVj9kVkc0Vo8yVpIyVpIyVpIyVpIyVpIyVpIyVpIyVpIyVpIyVpIyVpIyVpMyVpMyVpMyVpMyVpMyVpMyVpMyVpMyVpMyVpMyVpMyVpMyVpMyVpMyVpMyVpMyVpMyVpMyVpMyVpMyVpMyVpMyVpMyVpMyVpMyVpMyVpMyVpMyVpMyVpMyVpMyVpMyVpMyVpI6WpLVs4vVs4vVs4vVs4vVs4vVs4vVs4vVs4vVs4vWtIvWtIvWtIvWtIvWtIvWtIvWtIvWtIvWtIvWtIvWtIvWtIvWtIvWtIvWtIvWtIvWtIvWtIvWtIvWtIvVs4rVs4rVs4rVs4rVs4rWtIvWtIvWtIvWtIvWtIvjzLH+/v7+/v7+/v7+/v7+/v7+/v7+/v7+/v7+/v7+/v7///////////////////////////////////////////////////////////////////////////////////////////////////////////////////////////////////////////////////////////////////////////////////////////////////////////////////////////////////////////////////////////////////////////////////////////////////////////////////////////////////////////////////////////////////////////////////////////////////////////8I/gCdCRxIsKDBgwgTKlzIsKHDhxAjSpxIsaLFixgzatzIsaPHjyBDihxJsqTJkyhTqlzJsqXLlzBjypxJs6bNmzhz6tzJs6fPn0CDCh1KtKjRo0iTKl3KtKnTp1CjSp1KtarVq1izat3KtavXr2DDih1LtqzZs2jTql3Ltq3bt3Djyp1Lt67du3jz6t3Lt6/fv4ADCx5MuLDhw4gTK17MuLHjx5AjS55MubLly5gza97MubPnz6BDix5NurTp06hTq17NurXr17Bjy55Nu7bt27hz697Nu7fv38CDCx9OvLjx48iTK1/OvLnz59CjS59Ovbr169iza9/Ovbv37+DD/osfT768+fPo06tfz769+/fw48ufT7++/fv48+vfz7+///8ABijggAQWaOCBCCao4IIMNujggxBGKOGEFFZo4YUYZqjhhhx26OGHIIYo4ogklmjiiSimqOKKLLbo4oswxijjjDTWaOONOOao44489ujjj0AGKeSQRBZp5JFIJqnkkkw26eSTUEYp5ZRUVmnllVhmqeWWXHbp5ZdghinmmGSWaeaZaKap5ppstunmm3DGKeecdNZp55145qnnnnz26eefgAYq6KCEFmrooYgmquiijDbq6KOQRirppJRWaumlmGaq6aacdurpp6CGKuqopJZq6qmopqrqqqy26uqr/rDGKuustNZq66245qrrrrz26uuvwAYr7LDEFmvsscgmq+yyzDbr7LPQRivttNRWa+212Gar7bbcduvtt+CGK+645JZr7rnopqvuuuy26+678MYr77z01mvvvfjmq+++/Pbr778AByzwwAQXbPDBCCes8MIMN+zwwxBHLPHEFFds8cUYZ6zxxhx37PHHIIcs8sgkl2zyySinrPLKLLfs8sswxyzzzDTXbPPNOOes88489+zzz0AHLfTQRBdt9NFIJ6300kw37fTTUEct9dRUV2311VhnrfXWXHft9ddghy322GSXbfbZaKet9tpst+3223DHLffcdNdt99145633/t589+3334AHLvjghBdu+OGIJ6744ow37vjjkEcu+eSUV2755ZhnrvnmnHfu+eeghy766KSXbvrpqKeu+uqst+7667DHLvvstNdu++2456777rz37vvvwAcv/PDEF2/88cgnr/zyzDfv/PPQRy/99NRXb/312Gev/fbcd+/99+CHL/745Jdv/vnop6/++uy37/778Mcv//z012///fjnr//+/Pfv//8ADKAAB0jAAhrwgAhMoAIXyMAGOvCBEIygBCdIwQpa8IIYzKAGN8jBDnrwgyAMoQhHSEI9KeCEKEyhClfIwha68IUwjKEMZ0jDGtawhAOyoQ53yMMe+vCH/jHEoYCASMQiGvGIPhRigJDIxCY6kYlKBNATp0jFKs4wiv+xoha3qEUs+oeLYAwjEr3YHzGa8Yw8JCN/0MjGNsJQjftxoxzneEI46oeOeGSjHfOTxz6KcY/48aMgtwjI+wzykFQspH0QycgmKrI+jYykER9JH0la8oeUnM8lN7nDTMqHk6CkoSfjE8pSvnGU7zGlKlmIylSu8pV1bGV7YAlLWc6Slqu0JXtwmUtdqoeXqvTlL4FZSmGmh5jFNOZ5kBlKZS6TmZx0pnmgGU1pkoeam7TmNbFpSW2Oh5vd9GZ4wClJcY6TnI00J3jQmU51eoedjHSnZGCpg3ra8574/synPvfJz376858ADahABzrQWsqTKPQkqEIXytCGOvSh/jToQYWSUIha9KIYzShDJTpRoFRUoyANqUgxytGO+uSjI02pSlfaz5KalCcoZalMZzpSl75UJzGlqU53+lCb3hQnOeWpUIcKUJ/+1CZBJapSl2pPox6VJkllqlSF6tSnyiSqU83qTKtqVZhgVatgTSlXu+qSr4b1rBodK1lZYla0uhWial2rStr61rouNK5yRQld7crXgOI1rybZa18Hy8+/ApYkgiWsYu9p2MOKJLGLXWxjHQsSyEaWsJOlrEcse9m+ZlazHOFsZ+36WdBqRLSjfWtpTYsR1KYWratl/q1FXPvasMZWthShbW21elvcSkS3u51qb30LEeAGl6nDJa5DjHtcpSZXuQxhbnOH+lzoKkS60+Vpda2LEOxmV6fb5a5BvPvdrb5SvCUhb3lZGl70DkS961Vpe93rDPjGt6bnpW9I7HvfkM7Xvfztb1rzC10tCvjACKZpF6Vp4AQ7+MEgXbAzGwzhClt4o1a0JoUvzOEOtzTDDLaih0dMYsaCeMIiLrGKOyxhZW54xTB2cIuN+eIY27i/MxZmjW/M4+/m2Jc77rGQg/tjXQZ5yEgebZFteeQkO1mxS5Zlk59MZdKe2MUprrKWMXtlGmd5y2Cua5RbOeUwm3mpY0Zl/pnPzGbtdlnHX26znJ37ZiDHec543mmaR7nmPPs5wnU28p3/TGj8VlHDgy60ojO6Z0/2edGQJmijM/noSFv6n5OmZKUvzWl9ZvqRm+60qOv5aUWGetSdLnUhT43qS6sakKxudaRfvcdYy3rRtLajrW9d6FzDcde8/rOv1QjsYOd52GQstrHnjGwvKnvZbW42Fp8N7TNLO4rUrnaYr63EbGt7y9wWore/XeVw43Dc5H6yuUuI7nQned0kbLe7hwzvEcp73j2utwjvje8b6zuE/O53jP8NwoALfMUE/6DBD17ihHtw4QwfscM7CPGIszjQTE60xfE8cQ5WfOMW7vgG/j8OcgiLXIMkL7mMMS5ljavc2iwns8tfvu2Yq3nmNAe3zfmM85yXe+eO7rnP1Q10Sgt96O8uuqaPjnR6Kx3UTG96vp9u6qhL3d9UX7XVrz7wrMN661xHuNdrDfawN3zsui672SWO9l+rfe0XP3SIqwh3LZ88gymve23vjsG86z21fL+g3//e2cBbcPCEj6zhK4j4xEO57cR+u+MTvHgKNn7ynoV8siWPeQFXvn2X7zyuNf+90Iu+16T3nulPL+zUd2/1rD+267kH+9gze/bbq73to4177el+9zCXu/1+D/yaC79+xC++zo9Pv+Qr/+fMn5/zn0/06Mtv+tRPuvXj/of97Dt9+/DrvvenDv73iX/8WC+/+86P/q6rH/Scbz+qP2889stfxfQvnv3vT+L8E2///Odh/jc8ABiAHDaAwlOABhhyvZc9CriAJteA2POAELhy78c+FFiBCIaAwZOBGuh5Eng9HviB98WBwDOCJLheJvg7KJiCPhaC1tOCLjhdK+g7MjiDx1WDvXODOLhbOsg7PNiDr/WDuxOEQqhkMFg9RniEl0WEurOETChZSUg9UBiFXHaB61OFVph5WKg+WriFVtaF6fOFYKhaUzg9ZFiGsHWG0pOGamhbbBg9bviGvBWH0DOHdChcdvg8eJiHyLWHztOHfkhnYog+gjiI/tQFiM1ziIjoZoV4PozYiOCliMwTiZJoXo9oPpZ4iexFicuziZwoX56oPKAYioaWSPdTiqboX6OYPKq4igOWieXzirBIUq2IPLRYixblhLmTi7rYU7d4PL74iw3Fi7gzjMR4V8FYf/GXjGwni+SDjM5YUMuof804jQdYjf93jdjIgNA4PtLYjZimjQTIjeL4YMZ4O+F4joVFjglojuy4ge7YgfAYjyD4jeKzjvaIT+loO/q4j001jydYjwCpggLJggRZkC+Ij+HzjwXZj7XjkAAJkbQjkftIkbMzgoWwkRzZkR75kSAZkiI5kiQ5ksFVkiiZkiq5kh9JZAdpgwm5/lMsOZM0WZMbeZI2mZM6KZIuyZDgo5E7GZRCiZNCWZQ22ZOoOHwxqVNG2ZQ0SZROGZUliZRThD9AKZVYyZO7lZVcCZJU+URWuZQ01ZVkyZFQWZZZ+ZVOFJZ0t5Vo2ZVn+ZZRqZaOlIpiOVNyyZVxmZdGSZdQZJdtWVt8iZV7OZhB6ZdjBJhUVJiGqZOM2ZhH6YMvuYN3KVOQ2ZSPeZkziZhHxJaL6ZaaeZigGZqOKZk+WXqVyVKkKZqCuZqluXeTCYSpuVKu+ZqvVZs5yZmTpJhTlJm4aZKj+ZsrqZtF5Jm9GZzCmZK+mZwtaZpJiXyzqVLMyZLLOZ1m6ZxVyZtP/lSd1lkI3GmdxElExrmdyNmdIfmd0xmeQDSeToSezOmeyamemKSd7Vme5tmcrXmfwAmbp6l60ZlS+kmS8Cmc8plE9NlEA/qbCYqbBdpD7Img9hmgNxmhEtqgaXSgTLSgtamhrmmhnYShSMShqymipOmhOvSgGUqhAUqioWmiNoSiIaqi+smimumiNwSiR0Sjl6mjkGmjooSjRsSjjSmkhumjVwSkRUSkg6mkfGmkMgSjOSqj98mkeemkQYSkRESlcqmlb2mlp6SUgXmbEnqeUmqeXvpCUBqkZdqdXIqWZ+pCaZqkawqec5qe2AmWWApEbVqWe0qWb9pCcZqldfqe/oMan3e6lnn6Q5Y5pozaqI7KmqLYn693l49aqZZ6qfsZqc/ZfJSKqZ76qY8qUxgpOwYHqqZ6qlPaiZJKe52Kqq76qh2qqpsqfa0Kq7Z6q00qq9kJpp9Jm7j6q8AKl7qKp7x6nL4arMiarEM5rIharOR5rMoardI6nMxal85an9A6rdq6rfipqbsKnWEKoNw6ruQqqrFZhLVKruoarea6qrmXrusar8DarrN6ffAqr/gKq/T6rZwariOVrwB7q/tKrODaq9IZsAiLqgPbrAVrrAebsBDrqQtrrQ37rA8bsRgbqtX6l9cKodmasSC7ohubmB2boh8bsihLpys1qrFT/qop+7JsOrKdmag+tKgwe7MEKrO7WbIxerI4+7M7qrPFSbM9ZLNAe7RBu7Ln+oT3irRO26VCK55Ey0NG+7RW66ZRu55Tu0NVe7Vem5ZZO588G6U++7VmW5QTy7EVi60Xe7Zui7Zha6Bjq6Zl+7Z2u5lx66Bbq0Nde7d+S515e6FzK6d1+7eGq5VK666+17SH27heGbgfOriCWriOW7lpS7Jr67FtW7mc25GXO7OSq6eq2bmk67mQe6J7a0N9W7qO+7k7m7kmu7ms27qn+6Kpm0eYqkW5a0W7q7j/A0u9S0XBO0XDS7Ao90rF60TJ20TLq7bHu0rNi0TRe0TT+7rP/qtK1VtE2UtE26u1Hoe8l6q74cu74+u7/gO85Su86Uu862u8eAe+liq+8Uu+82u+/YO+9au++cu+++u+fQe/lSq/AUy/A2y//IO/Bay/Ccy/C+y/ggfAjyrAEUzAE2zA+4PAFazAGczAG+zAhwfBjirBIUzBI2zB+oPBJazBKczBK+zBjAfCjSrCMUzCM2zC+YPCNazCOczCO+zClgfDjCrDQUzDQ2zDgdpI3ftDSexDS6y33wu97au8Ucy8U+y87wvF/SvFWUzFW2zF/4vFDazFYczFY+zFDwzGHSzGaUzGa2zGH4zGLazGcczGc+zGLwzHPSzHeUzHe2zHP4zH/kWsw4HMw4PswxOEw4Wsx4nMx4vsx4cMxGMqxJFMxJNsxLeLR03MQ5m8Q5uMuk+MvVUsvaFMvaNsvVcMyl0syqlMyqtsyl+MymWsyrHMyrPsymcMy20sy7lMy7tsy2+My3Wsy8HMy8Psy3cMzH0szMlMzMtszH+MzI2szNHMzNPszI8MyJUsyNlMyNtsyBKEyN2syOHMyOPsyBhIyRIqyU2pzgHKzkX5X1SIzu0sz+9Mz/fpzkIJz2hoz+aJz0Hpz90J0Dqpz23IzwFt0AON0NMp0DlJ0HKo0MzJ0DYp0clJ0TTp0HcI0RWt0RfN0b9p0TOJ0Xzo0bgJ0ixp0rWJ/tIqKdKBSNIp7dIrDdOrqdIpydKLKNOkSdMoqdOhydMkadOViNM9LdQ/TdSX6dMjCdSfaNSQidQi6dSNCdUgqdSkyNRRbdVTjdWDKdUfSdWuqNV8ydUeKdZ5SdYc6dW4CNZlrdZnzdZvadYbidbC6NZoCdeFYNdladdyzYxV1Mk2lNd0Ddh9TZZ7bY2D3craS9iBrdiHzZWFvY2N3cuJ3ZV4zdjavM4EBrvSXM6bjdmRXcyT7diZ3a+XPc+fLZWVTdl0/djleNrVHNpZmdqi7dpOydrvSNvpvNqLrdq4bZS2TY+9rZ96vduzXdr13Euhq8SlDNtYKduxrdvIrdnU/szZ0+3Zxn3P0B1MlzxDfl1Dgn3d/ZzdpnTEyo3Y3GvZ3JzbwZ3Po02r6x3e772Tzt3c4p1Myc3Ey33evA3eBx3fCR3dpJ3eps3f/03gC13fzbTdMtTdNPTdAi7cCA5K5I3f5g1EDv5EDM7d6G3f0m1EGb7gGy7O6m3gE93e9urfB47iJa7iG83iHQ3g7k3iLS7jL07jHx3h1XTfPfThMXThIj7gD87eMH7iNl7SON7ZQI7hIS7hCt7j+W3hS85EPA5DPs7kOq7JUY5EArDlXN7lXv7lYB7mWz7f+QpLYn7maB7mLKs4w11Faf7mb07m+GrmcF7nar60k9PmVGTn/nzu5XIur3Te532+5omj51Mk6IL+5/Ea6Ihe54SOOIb+RI3O54q+row+6Wn+6IcT6U6E6Y5O3AF76Z4u5ppuOJzeRKMe56AOsKKe6l9e6oVz6kzk6mhe6era6rTO5bBOOLKu5bl+5y5+tbj+67s+OL1+RL8O7EX+tMOe68UuOMduRMkO5rZOrs1O688eONFeRNP+6qte5q/U7X6O55Kz7UQk7l1e7eN67a6e7YBj7kCE7rr+7XMe7vIuAO7+N/D+Q/eO7/QO6PYu7/nuN/vuQ/2u7tzK7qk+8H1T8D108P++6AGP7gzPNw7PQxAf7Far8KNe8Xtz8TuU8cvutBzv/ukerzcgr0MiH+R2W/KYfvJ5k/I2tPJKTrouP+kwjzcyX0M0/+N+e/ONnvN3s/M01PPkbLhAj+hCbzdEP0NGL+Wlm/SJTu6R0/Qy9PRI/vMTL+5LXzdWH0NYX91/K/WDTvWQ8/UwFPYeHvVb3+1dTzdo/0Jqz9yOS/aUbvaPE/cuNPf63bl2b+dvPzd630J8D+U23/bTHvhyM/gsVPjl7feIn+yKHzeMv0KOT+GQv0qX78QjrfErqUWbj+WHr/n3PvlwU/kqFPqczPakL/B47zion0Kqr0Os+/efbsmqE/soNPt/zfqqxPs3mtGeH9NuXvoRb+mRT+yv3zi6f0LA/t/gvm9Kz3+kVy5I/T798DTyM23i3Jf814/t2T9IU95GE35I3+/64e9H469HTe5G50/x6a/+Tx5P7d9G78/18d9H649G5T9I9+/2AKFA4ECCBQ0eRJhQ4UKGDR0+hPiw0ESKFS1exJhR40aOGyN+BBlSoDOSJU2eRJlS5UqWLV2+hBlT5kyaNW3exJlT506ePX3+BBpU6FCiRY0eRVpT5FKmCgU8hRpV6lSqVa1exXq16VauXb0u7RhW7FiyF7+ejZhU7Vq2bd2+hRtX7ly6de3exSsT7d6GWf3+BRx4Kl/ChQ07LJtY8eKJhx0ryBtZ8mTKlS1fxpxZ82aijw8L/gYdWvRTz6VNf2WcWrXH03s5v4YdW/Zs2rVt337beu9o3r216gYevOFq4sULCfeKW/ly5s2dP4cePSjyrr6tXxdAXbt2490Zb28qXfx48uXNn0fvFjxT7O1Hr4d/2vv8svFDpsefX/9+/v2b2wfJPQEFA7DAwuhDMCwDIfKvQQcfhDBCCYVa8KEBL/SrQg27SrBDjTZkaEIRRySxRBP1A3EhDFe0KkUXQfIwRoteROhEG2/EMUcdLaPxIBZ/lKpHIReSscjjhhxoRyWXZLJJJ3dCciAgp8wuSisFMlLGK5/ksksvv9zxSiqBvPLKLGPcEkw112SzzfTEHJPFMq08/tPDNN3EM08993wNzjgxnDPKOju8k09DD0U0Ubb8/HPAQJEcNMFCFaW0Uksv1cvKRgF9VMhIEZwUU1FHJTVRRjdtr1NPP50v1FJfhTXWLk9F9TpVe2S1VStl5bVXX3OktVbfbqUxV+9c/TVZZZfFL1hheSP2RWO7Q5ZZa6/FVjlnnxUtWhenNa7abMclt1weNeXWVm9BBLc4cc2FN1551UM33WHX3bBd4t6dt19//+1pW3sDwzdffVXjF2CFF2aYJYEH/qtgDQ9GeNeGL8Y445MehjgriSukOLWENSa55Gw57vi3jwsM+TuLTYY5ZnJRTrmqlQ1sebGRZea5Z1Fp/q55sJsBzFmxnX1GOmlDgQ46qqGJLrq+l5WmumpT620asKfti1rqKK0GO2w9mc66yq3X65qso8Vmu+2fz4ao7I4dS3ssx9zGO2+Z4Y5b7oHprlvBw/QmvPCL+bbQb3sBD5yjuw2HPHJ5EXdI8cUPa7yjxyXnvHNrKe/Lcm4ZzzyjzT1HPfVYQWdI9NExL/3DwVWnvXZMWVfRdWFJj33G2W0HPng+cXdK91p5752i04VnvvkviU/I+ONhT953w5zHPnsnoUdIelSRr3557ccnn0TuffS+UfCTF79899/373yD0lef+uqV/x1+/fdvVn6C6P/T+nrXPv4V0IDO8d///gA4JgHGjoAHhGAEZ5NAKS2QSg0s3QMluEEOXoaCArHgBe13vyNdr4MnROG5KBjCKWEwcxpMYQxl2JYPKoCFZBrh/WA4Qx72cCg1vOGPXNi4HfrQiEfMCRCDuKIhBq6ISIRiFF+ixCVeqIl1e6IUtbjFklCxigK6YtqyyEUyQtGLX0xVDsOXvzK2sYxnRKO6DEPCiozRjXeMIRzjeK850rExbMRjII+oxz1CS43sA6QgFTlDQhayW4ccYCIXOckTNtKRoAlj1+xISU6+z5KXJBgkHSjJTpaygJ8EZcREmUFSmtKVnvxgKvl4ID+WsDCvxOUpYylLQ/bRj5vMZTBV/odKXqqMlr9spTCVCTxiFtNmq3xhMpc5zdQ105lC8yUdgUlNbubNmtd0GjSJKM1ulrNw3wQnacTpRHKa051uQ2c6Mxm1bb7TnkhzjBT0uU9+9tOf/wRoQAU6UIHW0KDtvGdClZZPgjbUoQ+FaD8POlG+KNSieGNoRDW6UY5S1KNfuWhIxZZRjpbUpAX9aErDI1KWUo2kJ4VpTFU6U5G01Kb4PExMdSpTmvaUQTcFasxeulOiQtSnR21IUJVasqEW1akDRWpUE7JUqmKsqU/Fqj+lutWCVNWrC7tqVsUqBa6WFTJfRWu/wjpWrJqVq2mFa7zWylanunWrccXrzHJK/le+2lWqeQXstebK1536NaqBRayyBktYnhrWp4mFbK8Wy9iTOvaokcUsrCZL2ZJa9rGZBe3bDMNZsXq2p6FFraU2S1qNmpamqYXt1UbL2qe6dqaxxe3w9krbotpWpbkFLp5Wy1uH+jalwUXumoZLXIIa96PJha6XlstclDp3otHF7vZ2S12YWpei2QWvkqbL3X9697rhRe+NxkteiZrXoOmFr4nWy959uve98cXvhOZLX7La94P5BTCE9ktf//43wAfuz4DZW2AKItjBKNouf1vLYP892MLoUTB5KVzhC3d4PBnm7obl52ESRwfE1BXx+Uq84v9EWMJGTTH0WDxj/tycmLkxljGNdTxBF7+4uDjG3Y6FDBsb+5ioRTZykttrwiE3GTNIVnJlexxlKpu0nk7GslqgXOWNbpnLEr5ylsVcFC9/+aFlNrOGETpmNiMFzWmG6pThPOfyrrnNd/6hnOk81jfvmbVhxnOgcdJnP/OT0IVmLKAFveiZHBrRjkY0XRXNaEq7BNJ+vnSkS2vnSnc6U7PVNFszHeractrTp27JqOesalIf2dSohjVKWJ3mWbe6sbeMda5tUusv89rWVn61rmPt6yoT+9ddDrawUW3sKDP72DBmsrKl7TA9P7uz1ba2jyc9bUE7O8neznaco81tcncR2+GGdmHQ3etk/pd70eDW9rnXreZxu5vb8H4xvudt6HbbG8/65i/A993fevtb2QJfsLwHTtxtGzzLCKe3uhf+7X47fMwQD7HCJ/7nilv84RrfOL9BHfKAd9zjTsY4ikFOcsI2/ORCTvmNV85ySZv85TCfechjnm2X35zGO+ct0J/dc5+zWOgcHznNM17wolf66KR9uq2J3nQSR52yVif11KneYay3POdKz6rWt27hrvf162AvNdPHHuiy1zzpaA+6zdfu4baL+uxwd7Xa597muvP57njXqdj3HuC+b/rtgOes4Aef38KHHchdWfziG9/Wx3Ml8oOffNorz5TL7z3zdd38Sjs/9s/3/jb0nB896f++79OjPvVUL33eWw+S12899oWd/X1q3/TbBz73tN990Xt/698/JPjCX/28i/+R4/t8+N1d/k+bf/LnSzn6Dpn+y6sP7OsnNfse3/61ux+i71s8/B0dP/nLb/DzIzv9Clm/w9s/4fdPNf7+nn9E6w//+9s7/+nev67qP3f7vzMLwIMYQAJMvnU7QARMQHIrwB9rQIJ4QAhcQHSbQAGsQGmLwIbKQArcQA68wHD7wCQJwYMbQZ4rwbM6QV3rwOZawRYUthcUtw+UQRdMQWtbQRa8wWXLwaGLwR6ENRqsLhsUQh88PMTTpx08QiSUOCXUqiBswk4jwoBi/sIppMIfPLYrxEJKq0KA4sIufDct/LUwFEO2OwwCUMM1ZMM2dMM3hMM4lMM5pMM6tMM4VLwz1MOkcIw79MM/BMRAFEQ8lLs9NMRFScNBVMRFZMRFzMNDhESg6MNGpMRKtMQ3fMRI1EQoScRL9MRPVMRM3MRR3LVOBMVTREU6FEVSZMWYmMRUhMVYZMNVbMVapDbDkMVcjEVatMVe3BhT1MVgvERe9MVifEVhREZKJMZi7MVjTMZnHMRlZMZadEZotEY/lMZpZMVqvMZunMNs1MZR5EZvJEc3BMdw1MRxLMd1JIBzREdIVEd2JEd3fEdDjEd57EZ6rEc9vEd8tEZ9/txHMexHf3xGgAxILBxIgkRGgzzIJkxIhQxGhmxIIXxIiMxFiZzIG6xIi9zFQsxIX9xIjkxFjPzIEwxJkTxFkizJDTxJlPxElVzJB2xJlxxGj4zJbQRGmlxIm7xJccxJnYxInuzJdPxJoLxIoRxKeCxKo+xIvUvKhpxJpnREpHzKPYxKqYxGqqzKM7xKrAxEmNzK7OtKr/xDsAzL5htLsrxDszzL4EtLtaxDtmzL2ntLuPxGrZzLkqyhvORLytjLvgRMvPjLwCTMuRjMwkRMemmwxGRMRFzMxoTMozjMyKTM6TCwysTMn5jMzOTMQbvMzgTNUnzM0CTNT0ug0kRN/lf8zNRkzZTYzNaETWd4zdhkzdmkTdS0zdskzdzUTdDkzd7kzN8ETswUzuGkzOI0TshEzuRkzOVkTsR0zuckzOiUTsCkzurky+vEzrnUzu08y+70zq0Ez/B8yvEkz6E0z/O8yfRUz5Vkz/b8yPeEz4mUz/k8yPq0z/zUz/3kz/70z/8E0AAV0AEl0AI10ANF0ARV0AVl0AZ10AeF0AiV0Aml0Aq10AvF0AzV0A3l0A710A8F0RAV0REl0RI10RNF0RRV0RVl0RZ10ReF0RiV0Rml0Rq10RvF0RzV0R3l0R710R8F0iAV0iEl0iI10iNF0iRV0iVl0iZ10ieF0iiV/tIppdIqtdIrxdIs1dIt5dIu9dIvBdMwFdMxJdMyNdMzRdM0VdM1ZdM2ddM3hdM4ldM5pdM6tdM7xdM81dM95dM+9dM/BdRAFdRBJdRCNdRDRdREVdRFZdRGddRHhdRIldRJpdRKtdRLxdRM1dRN5dRO9dRPBdVQFdVRJdVSNdVTRdVUVdVVZdVWddVXhdVYldVZpdVatdVbxdVc1dVd5dVe9dVfBdZgFdZhJdZiNdZjRdZkVdZlZdZmddZnhdZoldZppdZqtdZrxdZs1dZt5dZu9dZvBddwFddxJddyNddzRdd0Vdd1Zdd2ddd3hdd4ldd5pdd6tdd7xdd81dd97OXXfvXXfwXYgBXYgSXYgjXYg0XYhFXYhWXYhnXYh4XYiJXYiaXYirXYi8XYjNXYjeXYjvXYjwXZkBXZkSXZkjXZk0XZlFXZlWXZlnXZl4XZmJXZmaXZmrXZm8XZnNXZneXZnvXZnwXaoBXaoSXaojXao0XapFXapWXapnXap4XaqJXaqaXaqrXaq8XarNXareXarvXarwXbsBXbsSXbsjXbs0XbtFXbtWXbtnXbt4XbuJXbuaXburXbu8XbvNXbveXbvvXbvwXcwBXcwSXcwjXcw0XcxFXcxWXcxnXcx4XcyJXcyaXcyrXcZw0IADs=;" parent="1" vertex="1">
          <mxGeometry x="533.45" y="400" width="106" height="106" as="geometry" />
        </mxCell>
        <mxCell id="wv0K0WiG-z1POux5Wfr7-3" value="&lt;font color=&quot;#000000&quot;&gt;Score: 45&lt;/font&gt;" style="strokeWidth=1;shadow=0;dashed=0;align=center;html=1;shape=mxgraph.mockup.text.textBox;align=left;fontSize=17;spacingLeft=4;spacingTop=-3;whiteSpace=wrap;strokeColor=#36393d;mainText=;fillColor=#f9f7ed;" parent="1" vertex="1">
          <mxGeometry x="242.89999999999998" y="175" width="150" height="30" as="geometry" />
        </mxCell>
        <mxCell id="wv0K0WiG-z1POux5Wfr7-4" value="&lt;font color=&quot;#000000&quot;&gt;Start Game&lt;/font&gt;" style="strokeWidth=1;shadow=0;dashed=0;align=center;html=1;shape=mxgraph.mockup.text.textBox;align=left;fontSize=17;spacingLeft=4;spacingTop=-3;whiteSpace=wrap;strokeColor=#36393d;mainText=;fillColor=#f9f7ed;" parent="1" vertex="1">
          <mxGeometry x="420" y="175" width="150" height="30" as="geometry" />
        </mxCell>
        <mxCell id="wv0K0WiG-z1POux5Wfr7-1" value="&lt;font color=&quot;#000000&quot;&gt;End Game&amp;nbsp;&lt;/font&gt;" style="strokeWidth=1;shadow=0;dashed=0;align=center;html=1;shape=mxgraph.mockup.text.textBox;align=left;fontSize=17;spacingLeft=4;spacingTop=-3;whiteSpace=wrap;strokeColor=#36393d;mainText=;fillColor=#f9f7ed;" parent="1" vertex="1">
          <mxGeometry x="600" y="175" width="150" height="30" as="geometry" />
        </mxCell>
        <mxCell id="wv0K0WiG-z1POux5Wfr7-8" value="&lt;font color=&quot;#000000&quot;&gt;Time: 37&lt;/font&gt;" style="strokeWidth=1;shadow=0;dashed=0;align=center;html=1;shape=mxgraph.mockup.text.textBox;align=left;fontSize=17;spacingLeft=4;spacingTop=-3;whiteSpace=wrap;strokeColor=#36393d;mainText=;fillColor=#f9f7ed;" parent="1" vertex="1">
          <mxGeometry x="780" y="175" width="150" height="30" as="geometry" />
        </mxCell>
      </root>
    </mxGraphModel>
  </diagram>
</mxfile>
